<?xml version="1.0" encoding="utf-8"?>
<svg xmlns="http://www.w3.org/2000/svg" xmlns:xlink="http://www.w3.org/1999/xlink" width="600" height="400" viewBox="0 0 2400 1600">
<defs>
  <clipPath id="clip800">
    <rect x="0" y="0" width="2400" height="1600"/>
  </clipPath>
</defs>
<path clip-path="url(#clip800)" d="
M0 1600 L2400 1600 L2400 0 L0 0  Z
  " fill="#ffffff" fill-rule="evenodd" fill-opacity="1"/>
<defs>
  <clipPath id="clip801">
    <rect x="480" y="0" width="1681" height="1600"/>
  </clipPath>
</defs>
<path clip-path="url(#clip800)" d="
M193.936 1486.45 L2352.76 1486.45 L2352.76 47.2441 L193.936 47.2441  Z
  " fill="#ffffff" fill-rule="evenodd" fill-opacity="1"/>
<defs>
  <clipPath id="clip802">
    <rect x="193" y="47" width="2160" height="1440"/>
  </clipPath>
</defs>
<polyline clip-path="url(#clip802)" style="stroke:#000000; stroke-width:2; stroke-opacity:0.1; fill:none" points="
  255.035,1486.45 255.035,47.2441 
  "/>
<polyline clip-path="url(#clip802)" style="stroke:#000000; stroke-width:2; stroke-opacity:0.1; fill:none" points="
  764.19,1486.45 764.19,47.2441 
  "/>
<polyline clip-path="url(#clip802)" style="stroke:#000000; stroke-width:2; stroke-opacity:0.1; fill:none" points="
  1273.35,1486.45 1273.35,47.2441 
  "/>
<polyline clip-path="url(#clip802)" style="stroke:#000000; stroke-width:2; stroke-opacity:0.1; fill:none" points="
  1782.5,1486.45 1782.5,47.2441 
  "/>
<polyline clip-path="url(#clip802)" style="stroke:#000000; stroke-width:2; stroke-opacity:0.1; fill:none" points="
  2291.66,1486.45 2291.66,47.2441 
  "/>
<polyline clip-path="url(#clip800)" style="stroke:#000000; stroke-width:4; stroke-opacity:1; fill:none" points="
  193.936,1486.45 2352.76,1486.45 
  "/>
<polyline clip-path="url(#clip800)" style="stroke:#000000; stroke-width:4; stroke-opacity:1; fill:none" points="
  255.035,1486.45 255.035,1469.18 
  "/>
<polyline clip-path="url(#clip800)" style="stroke:#000000; stroke-width:4; stroke-opacity:1; fill:none" points="
  764.19,1486.45 764.19,1469.18 
  "/>
<polyline clip-path="url(#clip800)" style="stroke:#000000; stroke-width:4; stroke-opacity:1; fill:none" points="
  1273.35,1486.45 1273.35,1469.18 
  "/>
<polyline clip-path="url(#clip800)" style="stroke:#000000; stroke-width:4; stroke-opacity:1; fill:none" points="
  1782.5,1486.45 1782.5,1469.18 
  "/>
<polyline clip-path="url(#clip800)" style="stroke:#000000; stroke-width:4; stroke-opacity:1; fill:none" points="
  2291.66,1486.45 2291.66,1469.18 
  "/>
<path clip-path="url(#clip800)" d="M 0 0 M209.097 1530.29 L238.773 1530.29 L238.773 1534.23 L209.097 1534.23 L209.097 1530.29 Z" fill="#000000" fill-rule="evenodd" fill-opacity="1" /><path clip-path="url(#clip800)" d="M 0 0 M249.676 1543.18 L257.315 1543.18 L257.315 1516.82 L249.005 1518.49 L249.005 1514.23 L257.268 1512.56 L261.944 1512.56 L261.944 1543.18 L269.583 1543.18 L269.583 1547.12 L249.676 1547.12 L249.676 1543.18 Z" fill="#000000" fill-rule="evenodd" fill-opacity="1" /><path clip-path="url(#clip800)" d="M 0 0 M289.028 1515.64 Q285.416 1515.64 283.588 1519.2 Q281.782 1522.75 281.782 1529.87 Q281.782 1536.98 283.588 1540.55 Q285.416 1544.09 289.028 1544.09 Q292.662 1544.09 294.467 1540.55 Q296.296 1536.98 296.296 1529.87 Q296.296 1522.75 294.467 1519.2 Q292.662 1515.64 289.028 1515.64 M289.028 1511.93 Q294.838 1511.93 297.893 1516.54 Q300.972 1521.12 300.972 1529.87 Q300.972 1538.6 297.893 1543.21 Q294.838 1547.79 289.028 1547.79 Q283.217 1547.79 280.139 1543.21 Q277.083 1538.6 277.083 1529.87 Q277.083 1521.12 280.139 1516.54 Q283.217 1511.93 289.028 1511.93 Z" fill="#000000" fill-rule="evenodd" fill-opacity="1" /><path clip-path="url(#clip800)" d="M 0 0 M733.832 1530.29 L763.507 1530.29 L763.507 1534.23 L733.832 1534.23 L733.832 1530.29 Z" fill="#000000" fill-rule="evenodd" fill-opacity="1" /><path clip-path="url(#clip800)" d="M 0 0 M773.646 1512.56 L792.003 1512.56 L792.003 1516.5 L777.929 1516.5 L777.929 1524.97 Q778.947 1524.62 779.966 1524.46 Q780.984 1524.27 782.003 1524.27 Q787.79 1524.27 791.169 1527.44 Q794.549 1530.62 794.549 1536.03 Q794.549 1541.61 791.077 1544.71 Q787.605 1547.79 781.285 1547.79 Q779.109 1547.79 776.841 1547.42 Q774.595 1547.05 772.188 1546.31 L772.188 1541.61 Q774.271 1542.74 776.493 1543.3 Q778.716 1543.86 781.193 1543.86 Q785.197 1543.86 787.535 1541.75 Q789.873 1539.64 789.873 1536.03 Q789.873 1532.42 787.535 1530.31 Q785.197 1528.21 781.193 1528.21 Q779.318 1528.21 777.443 1528.62 Q775.591 1529.04 773.646 1529.92 L773.646 1512.56 Z" fill="#000000" fill-rule="evenodd" fill-opacity="1" /><path clip-path="url(#clip800)" d="M 0 0 M1273.35 1515.64 Q1269.73 1515.64 1267.91 1519.2 Q1266.1 1522.75 1266.1 1529.87 Q1266.1 1536.98 1267.91 1540.55 Q1269.73 1544.09 1273.35 1544.09 Q1276.98 1544.09 1278.79 1540.55 Q1280.61 1536.98 1280.61 1529.87 Q1280.61 1522.75 1278.79 1519.2 Q1276.98 1515.64 1273.35 1515.64 M1273.35 1511.93 Q1279.16 1511.93 1282.21 1516.54 Q1285.29 1521.12 1285.29 1529.87 Q1285.29 1538.6 1282.21 1543.21 Q1279.16 1547.79 1273.35 1547.79 Q1267.54 1547.79 1264.46 1543.21 Q1261.4 1538.6 1261.4 1529.87 Q1261.4 1521.12 1264.46 1516.54 Q1267.54 1511.93 1273.35 1511.93 Z" fill="#000000" fill-rule="evenodd" fill-opacity="1" /><path clip-path="url(#clip800)" d="M 0 0 M1772.78 1512.56 L1791.14 1512.56 L1791.14 1516.5 L1777.06 1516.5 L1777.06 1524.97 Q1778.08 1524.62 1779.1 1524.46 Q1780.12 1524.27 1781.14 1524.27 Q1786.92 1524.27 1790.3 1527.44 Q1793.68 1530.62 1793.68 1536.03 Q1793.68 1541.61 1790.21 1544.71 Q1786.74 1547.79 1780.42 1547.79 Q1778.24 1547.79 1775.97 1547.42 Q1773.73 1547.05 1771.32 1546.31 L1771.32 1541.61 Q1773.4 1542.74 1775.63 1543.3 Q1777.85 1543.86 1780.33 1543.86 Q1784.33 1543.86 1786.67 1541.75 Q1789.01 1539.64 1789.01 1536.03 Q1789.01 1532.42 1786.67 1530.31 Q1784.33 1528.21 1780.33 1528.21 Q1778.45 1528.21 1776.58 1528.62 Q1774.72 1529.04 1772.78 1529.92 L1772.78 1512.56 Z" fill="#000000" fill-rule="evenodd" fill-opacity="1" /><path clip-path="url(#clip800)" d="M 0 0 M2266.34 1543.18 L2273.98 1543.18 L2273.98 1516.82 L2265.67 1518.49 L2265.67 1514.23 L2273.94 1512.56 L2278.61 1512.56 L2278.61 1543.18 L2286.25 1543.18 L2286.25 1547.12 L2266.34 1547.12 L2266.34 1543.18 Z" fill="#000000" fill-rule="evenodd" fill-opacity="1" /><path clip-path="url(#clip800)" d="M 0 0 M2305.7 1515.64 Q2302.09 1515.64 2300.26 1519.2 Q2298.45 1522.75 2298.45 1529.87 Q2298.45 1536.98 2300.26 1540.55 Q2302.09 1544.09 2305.7 1544.09 Q2309.33 1544.09 2311.14 1540.55 Q2312.96 1536.98 2312.96 1529.87 Q2312.96 1522.75 2311.14 1519.2 Q2309.33 1515.64 2305.7 1515.64 M2305.7 1511.93 Q2311.51 1511.93 2314.56 1516.54 Q2317.64 1521.12 2317.64 1529.87 Q2317.64 1538.6 2314.56 1543.21 Q2311.51 1547.79 2305.7 1547.79 Q2299.89 1547.79 2296.81 1543.21 Q2293.75 1538.6 2293.75 1529.87 Q2293.75 1521.12 2296.81 1516.54 Q2299.89 1511.93 2305.7 1511.93 Z" fill="#000000" fill-rule="evenodd" fill-opacity="1" /><polyline clip-path="url(#clip802)" style="stroke:#000000; stroke-width:2; stroke-opacity:0.1; fill:none" points="
  193.936,1445.77 2352.76,1445.77 
  "/>
<polyline clip-path="url(#clip802)" style="stroke:#000000; stroke-width:2; stroke-opacity:0.1; fill:none" points="
  193.936,1106.32 2352.76,1106.32 
  "/>
<polyline clip-path="url(#clip802)" style="stroke:#000000; stroke-width:2; stroke-opacity:0.1; fill:none" points="
  193.936,766.875 2352.76,766.875 
  "/>
<polyline clip-path="url(#clip802)" style="stroke:#000000; stroke-width:2; stroke-opacity:0.1; fill:none" points="
  193.936,427.425 2352.76,427.425 
  "/>
<polyline clip-path="url(#clip802)" style="stroke:#000000; stroke-width:2; stroke-opacity:0.1; fill:none" points="
  193.936,87.9763 2352.76,87.9763 
  "/>
<polyline clip-path="url(#clip800)" style="stroke:#000000; stroke-width:4; stroke-opacity:1; fill:none" points="
  193.936,1486.45 193.936,47.2441 
  "/>
<polyline clip-path="url(#clip800)" style="stroke:#000000; stroke-width:4; stroke-opacity:1; fill:none" points="
  193.936,1445.77 219.842,1445.77 
  "/>
<polyline clip-path="url(#clip800)" style="stroke:#000000; stroke-width:4; stroke-opacity:1; fill:none" points="
  193.936,1106.32 219.842,1106.32 
  "/>
<polyline clip-path="url(#clip800)" style="stroke:#000000; stroke-width:4; stroke-opacity:1; fill:none" points="
  193.936,766.875 219.842,766.875 
  "/>
<polyline clip-path="url(#clip800)" style="stroke:#000000; stroke-width:4; stroke-opacity:1; fill:none" points="
  193.936,427.425 219.842,427.425 
  "/>
<polyline clip-path="url(#clip800)" style="stroke:#000000; stroke-width:4; stroke-opacity:1; fill:none" points="
  193.936,87.9763 219.842,87.9763 
  "/>
<path clip-path="url(#clip800)" d="M 0 0 M50.9921 1446.22 L80.6679 1446.22 L80.6679 1450.16 L50.9921 1450.16 L50.9921 1446.22 Z" fill="#000000" fill-rule="evenodd" fill-opacity="1" /><path clip-path="url(#clip800)" d="M 0 0 M91.5706 1459.12 L99.2095 1459.12 L99.2095 1432.75 L90.8993 1434.42 L90.8993 1430.16 L99.1632 1428.49 L103.839 1428.49 L103.839 1459.12 L111.478 1459.12 L111.478 1463.05 L91.5706 1463.05 L91.5706 1459.12 Z" fill="#000000" fill-rule="evenodd" fill-opacity="1" /><path clip-path="url(#clip800)" d="M 0 0 M120.922 1457.17 L125.807 1457.17 L125.807 1463.05 L120.922 1463.05 L120.922 1457.17 Z" fill="#000000" fill-rule="evenodd" fill-opacity="1" /><path clip-path="url(#clip800)" d="M 0 0 M145.992 1431.57 Q142.381 1431.57 140.552 1435.14 Q138.746 1438.68 138.746 1445.81 Q138.746 1452.91 140.552 1456.48 Q142.381 1460.02 145.992 1460.02 Q149.626 1460.02 151.431 1456.48 Q153.26 1452.91 153.26 1445.81 Q153.26 1438.68 151.431 1435.14 Q149.626 1431.57 145.992 1431.57 M145.992 1427.87 Q151.802 1427.87 154.857 1432.47 Q157.936 1437.06 157.936 1445.81 Q157.936 1454.53 154.857 1459.14 Q151.802 1463.72 145.992 1463.72 Q140.181 1463.72 137.103 1459.14 Q134.047 1454.53 134.047 1445.81 Q134.047 1437.06 137.103 1432.47 Q140.181 1427.87 145.992 1427.87 Z" fill="#000000" fill-rule="evenodd" fill-opacity="1" /><path clip-path="url(#clip800)" d="M 0 0 M51.9875 1106.78 L81.6633 1106.78 L81.6633 1110.71 L51.9875 1110.71 L51.9875 1106.78 Z" fill="#000000" fill-rule="evenodd" fill-opacity="1" /><path clip-path="url(#clip800)" d="M 0 0 M101.756 1092.12 Q98.1447 1092.12 96.316 1095.69 Q94.5104 1099.23 94.5104 1106.36 Q94.5104 1113.47 96.316 1117.03 Q98.1447 1120.57 101.756 1120.57 Q105.39 1120.57 107.196 1117.03 Q109.024 1113.47 109.024 1106.36 Q109.024 1099.23 107.196 1095.69 Q105.39 1092.12 101.756 1092.12 M101.756 1088.42 Q107.566 1088.42 110.621 1093.03 Q113.7 1097.61 113.7 1106.36 Q113.7 1115.09 110.621 1119.69 Q107.566 1124.28 101.756 1124.28 Q95.9456 1124.28 92.8669 1119.69 Q89.8114 1115.09 89.8114 1106.36 Q89.8114 1097.61 92.8669 1093.03 Q95.9456 1088.42 101.756 1088.42 Z" fill="#000000" fill-rule="evenodd" fill-opacity="1" /><path clip-path="url(#clip800)" d="M 0 0 M121.918 1117.72 L126.802 1117.72 L126.802 1123.6 L121.918 1123.6 L121.918 1117.72 Z" fill="#000000" fill-rule="evenodd" fill-opacity="1" /><path clip-path="url(#clip800)" d="M 0 0 M137.033 1089.04 L155.39 1089.04 L155.39 1092.98 L141.316 1092.98 L141.316 1101.45 Q142.334 1101.1 143.353 1100.94 Q144.371 1100.76 145.39 1100.76 Q151.177 1100.76 154.556 1103.93 Q157.936 1107.1 157.936 1112.52 Q157.936 1118.09 154.464 1121.2 Q150.992 1124.28 144.672 1124.28 Q142.496 1124.28 140.228 1123.9 Q137.982 1123.53 135.575 1122.79 L135.575 1118.09 Q137.658 1119.23 139.881 1119.78 Q142.103 1120.34 144.58 1120.34 Q148.584 1120.34 150.922 1118.23 Q153.26 1116.13 153.26 1112.52 Q153.26 1108.9 150.922 1106.8 Q148.584 1104.69 144.58 1104.69 Q142.705 1104.69 140.83 1105.11 Q138.978 1105.53 137.033 1106.4 L137.033 1089.04 Z" fill="#000000" fill-rule="evenodd" fill-opacity="1" /><path clip-path="url(#clip800)" d="M 0 0 M100.76 752.673 Q97.1493 752.673 95.3206 756.238 Q93.515 759.78 93.515 766.909 Q93.515 774.016 95.3206 777.581 Q97.1493 781.122 100.76 781.122 Q104.395 781.122 106.2 777.581 Q108.029 774.016 108.029 766.909 Q108.029 759.78 106.2 756.238 Q104.395 752.673 100.76 752.673 M100.76 748.97 Q106.571 748.97 109.626 753.576 Q112.705 758.159 112.705 766.909 Q112.705 775.636 109.626 780.243 Q106.571 784.826 100.76 784.826 Q94.9502 784.826 91.8715 780.243 Q88.816 775.636 88.816 766.909 Q88.816 758.159 91.8715 753.576 Q94.9502 748.97 100.76 748.97 Z" fill="#000000" fill-rule="evenodd" fill-opacity="1" /><path clip-path="url(#clip800)" d="M 0 0 M120.922 778.275 L125.807 778.275 L125.807 784.155 L120.922 784.155 L120.922 778.275 Z" fill="#000000" fill-rule="evenodd" fill-opacity="1" /><path clip-path="url(#clip800)" d="M 0 0 M145.992 752.673 Q142.381 752.673 140.552 756.238 Q138.746 759.78 138.746 766.909 Q138.746 774.016 140.552 777.581 Q142.381 781.122 145.992 781.122 Q149.626 781.122 151.431 777.581 Q153.26 774.016 153.26 766.909 Q153.26 759.78 151.431 756.238 Q149.626 752.673 145.992 752.673 M145.992 748.97 Q151.802 748.97 154.857 753.576 Q157.936 758.159 157.936 766.909 Q157.936 775.636 154.857 780.243 Q151.802 784.826 145.992 784.826 Q140.181 784.826 137.103 780.243 Q134.047 775.636 134.047 766.909 Q134.047 758.159 137.103 753.576 Q140.181 748.97 145.992 748.97 Z" fill="#000000" fill-rule="evenodd" fill-opacity="1" /><path clip-path="url(#clip800)" d="M 0 0 M101.756 413.224 Q98.1447 413.224 96.316 416.789 Q94.5104 420.331 94.5104 427.46 Q94.5104 434.567 96.316 438.131 Q98.1447 441.673 101.756 441.673 Q105.39 441.673 107.196 438.131 Q109.024 434.567 109.024 427.46 Q109.024 420.331 107.196 416.789 Q105.39 413.224 101.756 413.224 M101.756 409.52 Q107.566 409.52 110.621 414.127 Q113.7 418.71 113.7 427.46 Q113.7 436.187 110.621 440.793 Q107.566 445.377 101.756 445.377 Q95.9456 445.377 92.8669 440.793 Q89.8114 436.187 89.8114 427.46 Q89.8114 418.71 92.8669 414.127 Q95.9456 409.52 101.756 409.52 Z" fill="#000000" fill-rule="evenodd" fill-opacity="1" /><path clip-path="url(#clip800)" d="M 0 0 M121.918 438.826 L126.802 438.826 L126.802 444.705 L121.918 444.705 L121.918 438.826 Z" fill="#000000" fill-rule="evenodd" fill-opacity="1" /><path clip-path="url(#clip800)" d="M 0 0 M137.033 410.145 L155.39 410.145 L155.39 414.081 L141.316 414.081 L141.316 422.553 Q142.334 422.206 143.353 422.044 Q144.371 421.858 145.39 421.858 Q151.177 421.858 154.556 425.03 Q157.936 428.201 157.936 433.618 Q157.936 439.196 154.464 442.298 Q150.992 445.377 144.672 445.377 Q142.496 445.377 140.228 445.006 Q137.982 444.636 135.575 443.895 L135.575 439.196 Q137.658 440.331 139.881 440.886 Q142.103 441.442 144.58 441.442 Q148.584 441.442 150.922 439.335 Q153.26 437.229 153.26 433.618 Q153.26 430.006 150.922 427.9 Q148.584 425.794 144.58 425.794 Q142.705 425.794 140.83 426.21 Q138.978 426.627 137.033 427.507 L137.033 410.145 Z" fill="#000000" fill-rule="evenodd" fill-opacity="1" /><path clip-path="url(#clip800)" d="M 0 0 M91.5706 101.321 L99.2095 101.321 L99.2095 74.9555 L90.8993 76.6222 L90.8993 72.3629 L99.1632 70.6963 L103.839 70.6963 L103.839 101.321 L111.478 101.321 L111.478 105.256 L91.5706 105.256 L91.5706 101.321 Z" fill="#000000" fill-rule="evenodd" fill-opacity="1" /><path clip-path="url(#clip800)" d="M 0 0 M120.922 99.3767 L125.807 99.3767 L125.807 105.256 L120.922 105.256 L120.922 99.3767 Z" fill="#000000" fill-rule="evenodd" fill-opacity="1" /><path clip-path="url(#clip800)" d="M 0 0 M145.992 73.775 Q142.381 73.775 140.552 77.3398 Q138.746 80.8814 138.746 88.011 Q138.746 95.1174 140.552 98.6822 Q142.381 102.224 145.992 102.224 Q149.626 102.224 151.431 98.6822 Q153.26 95.1174 153.26 88.011 Q153.26 80.8814 151.431 77.3398 Q149.626 73.775 145.992 73.775 M145.992 70.0713 Q151.802 70.0713 154.857 74.6777 Q157.936 79.261 157.936 88.011 Q157.936 96.7378 154.857 101.344 Q151.802 105.928 145.992 105.928 Q140.181 105.928 137.103 101.344 Q134.047 96.7378 134.047 88.011 Q134.047 79.261 137.103 74.6777 Q140.181 70.0713 145.992 70.0713 Z" fill="#000000" fill-rule="evenodd" fill-opacity="1" /><polyline clip-path="url(#clip802)" style="stroke:#009af9; stroke-width:4; stroke-opacity:1; fill:none" points="
  255.035,766.875 265.269,766.875 275.503,766.875 285.738,766.875 295.972,766.875 306.206,766.875 316.44,766.875 326.675,766.875 336.909,766.875 347.143,766.875 
  357.378,766.875 367.612,766.875 377.846,766.875 388.08,766.875 398.315,766.875 408.549,766.875 418.783,766.875 429.018,766.875 439.252,766.875 449.486,766.875 
  459.72,766.875 469.955,766.875 480.189,766.875 490.423,766.875 500.657,766.875 510.892,766.875 521.126,766.875 531.36,766.875 541.595,766.875 551.829,766.875 
  562.063,766.875 572.297,766.875 582.532,766.875 592.766,766.875 603,766.875 613.235,766.875 623.469,766.875 633.703,766.875 643.937,766.875 654.172,766.875 
  664.406,766.875 674.64,766.875 684.875,766.875 695.109,766.875 705.343,766.875 715.577,766.875 725.812,766.875 736.046,766.875 746.28,766.875 756.515,766.875 
  766.749,766.875 776.983,766.875 787.217,766.875 797.452,766.875 807.686,766.875 817.92,766.875 828.155,766.875 838.389,766.875 848.623,766.875 858.857,766.875 
  869.092,766.875 879.326,766.875 889.56,766.875 899.795,766.875 910.029,766.875 920.263,766.875 930.497,766.875 940.732,766.875 950.966,766.875 961.2,766.875 
  971.435,766.875 981.669,766.875 991.903,766.875 1002.14,766.875 1012.37,766.875 1022.61,766.875 1032.84,766.875 1043.07,766.875 1053.31,766.875 1063.54,766.875 
  1073.78,766.875 1084.01,766.875 1094.25,766.875 1104.48,766.875 1114.71,766.875 1124.95,766.874 1135.18,766.874 1145.42,766.872 1155.65,766.868 1165.89,766.857 
  1176.12,766.826 1186.35,766.742 1196.59,766.513 1206.82,765.888 1217.06,764.187 1227.29,759.581 1237.53,747.312 1247.76,715.969 1257.99,643.788 1268.23,510.964 
  1278.46,343.887 1288.7,211.063 1298.93,138.882 1309.17,107.539 1319.4,95.2703 1329.63,90.6645 1339.87,88.9627 1350.1,88.3377 1360.34,88.1086 1370.57,88.0247 
  1380.81,87.994 1391.04,87.9828 1401.27,87.9786 1411.51,87.9771 1421.74,87.9766 1431.98,87.9764 1442.21,87.9763 1452.45,87.9763 1462.68,87.9763 1472.91,87.9763 
  1483.15,87.9763 1493.38,87.9763 1503.62,87.9763 1513.85,87.9763 1524.09,87.9764 1534.32,87.9767 1544.55,87.9773 1554.79,87.9792 1565.02,87.9842 1575.26,87.998 
  1585.49,88.0355 1595.73,88.1381 1605.96,88.4181 1616.19,89.1819 1626.43,91.26 1636.66,96.8729 1646.9,111.742 1657.13,149.193 1667.37,232.628 1677.6,376.636 
  1687.83,542.137 1698.07,662.764 1708.3,724.663 1718.54,750.789 1728.77,760.897 1739.01,764.674 1749.24,766.068 1759.47,766.579 1769.71,766.766 1779.94,766.835 
  1790.18,766.86 1800.41,766.869 1810.65,766.873 1820.88,766.874 1831.11,766.874 1841.35,766.875 1851.58,766.875 1861.82,766.875 1872.05,766.875 1882.29,766.875 
  1892.52,766.875 1902.75,766.875 1912.99,766.875 1923.22,766.875 1933.46,766.875 1943.69,766.875 1953.93,766.875 1964.16,766.875 1974.39,766.875 1984.63,766.875 
  1994.86,766.875 2005.1,766.875 2015.33,766.875 2025.57,766.875 2035.8,766.875 2046.03,766.875 2056.27,766.875 2066.5,766.875 2076.74,766.875 2086.97,766.875 
  2097.21,766.875 2107.44,766.875 2117.67,766.875 2127.91,766.875 2138.14,766.875 2148.38,766.875 2158.61,766.875 2168.85,766.875 2179.08,766.875 2189.31,766.875 
  2199.55,766.875 2209.78,766.875 2220.02,766.875 2230.25,766.875 2240.49,766.875 2250.72,766.875 2260.95,766.875 2271.19,766.875 2281.42,766.875 2291.66,766.875 
  
  "/>
<polyline clip-path="url(#clip802)" style="stroke:#ff0000; stroke-width:4; stroke-opacity:1; fill:none" points="
  255.035,397.54 265.269,456.558 275.503,518.708 285.738,583.362 295.972,649.868 306.206,717.556 316.44,785.741 326.675,853.736 336.909,920.854 347.143,986.418 
  357.378,1049.77 367.612,1110.26 377.846,1167.29 388.08,1220.27 398.315,1268.69 408.549,1312.03 418.783,1349.88 429.018,1381.84 439.252,1407.59 449.486,1426.88 
  459.72,1439.51 469.955,1445.35 480.189,1444.34 490.423,1436.49 500.657,1421.89 510.892,1400.67 521.126,1373.06 531.36,1339.34 541.595,1299.83 551.829,1254.95 
  562.063,1205.14 572.297,1150.9 582.532,1092.79 592.766,1031.4 603,967.327 613.235,901.236 623.469,833.79 633.703,765.667 643.937,697.557 654.172,630.147 
  664.406,564.116 674.64,500.132 684.875,438.84 695.109,380.858 705.343,326.773 715.577,277.128 725.812,232.427 736.046,193.119 746.28,159.602 756.515,132.213 
  766.749,111.23 776.983,96.8634 787.217,89.2589 797.452,88.4931 807.686,94.5737 817.92,107.439 828.155,126.96 838.389,152.939 848.623,185.114 858.857,223.16 
  869.092,266.694 879.326,315.275 889.56,368.414 899.795,425.575 910.029,486.18 920.263,549.618 930.497,615.248 940.732,682.409 950.966,750.422 961.2,818.601 
  971.435,886.259 981.669,952.711 991.903,1017.29 1002.14,1079.34 1012.37,1138.23 1022.61,1193.38 1032.84,1244.23 1043.07,1290.25 1053.31,1331 1063.54,1366.05 
  1073.78,1395.05 1084.01,1417.72 1094.25,1433.81 1104.48,1443.18 1114.71,1445.72 1124.95,1441.4 1135.18,1430.29 1145.42,1412.47 1155.65,1388.14 1165.89,1357.54 
  1176.12,1320.98 1186.35,1278.83 1196.59,1231.51 1206.82,1179.5 1217.06,1123.32 1227.29,1063.55 1237.53,1000.79 1247.76,935.663 1257.99,868.834 1268.23,800.976 
  1278.46,732.774 1288.7,664.915 1298.93,598.086 1309.17,532.961 1319.4,470.196 1329.63,410.425 1339.87,354.251 1350.1,302.242 1360.34,254.922 1370.57,212.769 
  1380.81,176.208 1391.04,145.608 1401.27,121.279 1411.51,103.464 1421.74,92.3452 1431.98,88.0337 1442.21,90.5732 1452.45,99.9382 1462.68,116.034 1472.91,138.698 
  1483.15,167.702 1493.38,202.753 1503.62,243.498 1513.85,289.524 1524.09,340.368 1534.32,395.516 1544.55,454.412 1554.79,516.462 1565.02,581.039 1575.26,647.491 
  1585.49,715.148 1595.73,783.327 1605.96,851.34 1616.19,918.501 1626.43,984.132 1636.66,1047.57 1646.9,1108.17 1657.13,1165.33 1667.37,1218.47 1677.6,1267.06 
  1687.83,1310.59 1698.07,1348.64 1708.3,1380.81 1718.54,1406.79 1728.77,1426.31 1739.01,1439.18 1749.24,1445.26 1759.47,1444.49 1769.71,1436.89 1779.94,1422.52 
  1790.18,1401.54 1800.41,1374.15 1810.65,1340.63 1820.88,1301.32 1831.11,1256.62 1841.35,1206.98 1851.58,1152.89 1861.82,1094.91 1872.05,1033.62 1882.29,969.633 
  1892.52,903.602 1902.75,836.192 1912.99,768.082 1923.22,699.96 1933.46,632.513 1943.69,566.422 1953.93,502.354 1964.16,440.956 1974.39,382.847 1984.63,328.614 
  1994.86,278.804 2005.1,233.919 2015.33,194.413 2025.57,160.685 2035.8,133.075 2046.03,111.861 2056.27,97.2571 2066.5,89.4116 2076.74,88.4032 2086.97,94.2421 
  2097.21,106.869 2107.44,126.158 2117.67,151.912 2127.91,183.873 2138.14,221.718 2148.38,265.064 2158.61,313.475 2168.85,366.462 2179.08,423.49 2189.31,483.983 
  2199.55,547.332 2209.78,612.896 2220.02,680.014 2230.25,748.008 2240.49,816.194 2250.72,883.881 2260.95,950.387 2271.19,1015.04 2281.42,1077.19 2291.66,1136.21 
  
  "/>
<polyline clip-path="url(#clip802)" style="stroke:#008000; stroke-width:4; stroke-opacity:1; fill:none" points="
  255.035,766.875 265.269,766.875 275.503,766.875 285.738,766.875 295.972,766.875 306.206,766.875 316.44,766.875 326.675,766.875 336.909,766.875 347.143,766.875 
  357.378,766.875 367.612,766.875 377.846,766.875 388.08,766.875 398.315,766.875 408.549,766.875 418.783,766.875 429.018,766.875 439.252,766.875 449.486,766.875 
  459.72,766.875 469.955,766.875 480.189,766.875 490.423,766.875 500.657,766.875 510.892,766.875 521.126,766.875 531.36,766.875 541.595,766.875 551.829,766.875 
  562.063,766.875 572.297,766.875 582.532,766.875 592.766,766.875 603,766.875 613.235,766.875 623.469,766.875 633.703,766.875 643.937,766.875 654.172,766.875 
  664.406,766.875 674.64,766.875 684.875,766.875 695.109,766.875 705.343,766.875 715.577,766.875 725.812,766.875 736.046,766.875 746.28,766.875 756.515,766.875 
  766.749,766.875 776.983,766.875 787.217,766.875 797.452,766.875 807.686,766.875 817.92,766.875 828.155,766.875 838.389,766.875 848.623,766.875 858.857,766.875 
  869.092,766.875 879.326,766.875 889.56,766.875 899.795,766.875 910.029,766.875 920.263,766.875 930.497,766.875 940.732,766.875 950.966,766.875 961.2,766.875 
  971.435,766.875 981.669,766.875 991.903,766.875 1002.14,766.875 1012.37,766.875 1022.61,766.875 1032.84,766.875 1043.07,766.875 1053.31,766.875 1063.54,766.875 
  1073.78,766.875 1084.01,766.875 1094.25,766.875 1104.48,766.875 1114.71,766.875 1124.95,766.875 1135.18,766.876 1145.42,766.877 1155.65,766.881 1165.89,766.89 
  1176.12,766.914 1186.35,766.974 1196.59,767.122 1206.82,767.474 1217.06,768.286 1227.29,770.062 1237.53,773.615 1247.76,779.531 1257.99,785.36 1268.23,779.729 
  1278.46,745.628 1288.7,683.401 1298.93,610.742 1309.17,539.701 1319.4,473.383 1329.63,411.836 1339.87,354.851 1350.1,302.49 1360.34,255.022 1370.57,212.809 
  1380.81,176.224 1391.04,145.614 1401.27,121.281 1411.51,103.465 1421.74,92.3455 1431.98,88.0338 1442.21,90.5733 1452.45,99.9382 1462.68,116.034 1472.91,138.698 
  1483.15,167.702 1493.38,202.753 1503.62,243.498 1513.85,289.524 1524.09,340.368 1534.32,395.516 1544.55,454.413 1554.79,516.463 1565.02,581.041 1575.26,647.495 
  1585.49,715.153 1595.73,783.323 1605.96,851.285 1616.19,918.232 1626.43,983.081 1636.66,1043.89 1646.9,1096.23 1657.13,1129.41 1667.37,1122.25 1677.6,1054.38 
  1687.83,946.862 1698.07,856.089 1708.3,805.048 1718.54,782.036 1728.77,772.681 1739.01,769.054 1749.24,767.681 1759.47,767.17 1769.71,766.982 1779.94,766.913 
  1790.18,766.888 1800.41,766.879 1810.65,766.876 1820.88,766.875 1831.11,766.875 1841.35,766.875 1851.58,766.875 1861.82,766.875 1872.05,766.875 1882.29,766.875 
  1892.52,766.875 1902.75,766.875 1912.99,766.875 1923.22,766.875 1933.46,766.875 1943.69,766.875 1953.93,766.875 1964.16,766.875 1974.39,766.875 1984.63,766.875 
  1994.86,766.875 2005.1,766.875 2015.33,766.875 2025.57,766.875 2035.8,766.875 2046.03,766.875 2056.27,766.875 2066.5,766.875 2076.74,766.875 2086.97,766.875 
  2097.21,766.875 2107.44,766.875 2117.67,766.875 2127.91,766.875 2138.14,766.875 2148.38,766.875 2158.61,766.875 2168.85,766.875 2179.08,766.875 2189.31,766.875 
  2199.55,766.875 2209.78,766.875 2220.02,766.875 2230.25,766.875 2240.49,766.875 2250.72,766.875 2260.95,766.875 2271.19,766.875 2281.42,766.875 2291.66,766.875 
  
  "/>
<path clip-path="url(#clip800)" d="
M1663.87 337.138 L2280.8 337.138 L2280.8 95.2176 L1663.87 95.2176  Z
  " fill="#ffffff" fill-rule="evenodd" fill-opacity="1"/>
<polyline clip-path="url(#clip800)" style="stroke:#000000; stroke-width:4; stroke-opacity:1; fill:none" points="
  1663.87,337.138 2280.8,337.138 2280.8,95.2176 1663.87,95.2176 1663.87,337.138 
  "/>
<polyline clip-path="url(#clip800)" style="stroke:#009af9; stroke-width:4; stroke-opacity:1; fill:none" points="
  1687.86,155.698 1831.78,155.698 
  "/>
<path clip-path="url(#clip800)" d="M 0 0 M1874.54 160.038 Q1874.54 155.339 1872.59 152.677 Q1870.67 149.992 1867.29 149.992 Q1863.91 149.992 1861.97 152.677 Q1860.05 155.339 1860.05 160.038 Q1860.05 164.737 1861.97 167.422 Q1863.91 170.084 1867.29 170.084 Q1870.67 170.084 1872.59 167.422 Q1874.54 164.737 1874.54 160.038 M1860.05 150.987 Q1861.39 148.672 1863.43 147.561 Q1865.49 146.427 1868.33 146.427 Q1873.05 146.427 1875.99 150.177 Q1878.96 153.927 1878.96 160.038 Q1878.96 166.149 1875.99 169.899 Q1873.05 173.649 1868.33 173.649 Q1865.49 173.649 1863.43 172.538 Q1861.39 171.403 1860.05 169.089 L1860.05 172.978 L1855.76 172.978 L1855.76 136.959 L1860.05 136.959 L1860.05 150.987 Z" fill="#000000" fill-rule="evenodd" fill-opacity="1" /><path clip-path="url(#clip800)" d="M 0 0 M1886.02 147.052 L1890.28 147.052 L1890.28 172.978 L1886.02 172.978 L1886.02 147.052 M1886.02 136.959 L1890.28 136.959 L1890.28 142.353 L1886.02 142.353 L1886.02 136.959 Z" fill="#000000" fill-rule="evenodd" fill-opacity="1" /><path clip-path="url(#clip800)" d="M 0 0 M1920.74 157.329 L1920.74 172.978 L1916.48 172.978 L1916.48 157.468 Q1916.48 153.788 1915.05 151.959 Q1913.61 150.13 1910.74 150.13 Q1907.29 150.13 1905.3 152.33 Q1903.31 154.529 1903.31 158.325 L1903.31 172.978 L1899.03 172.978 L1899.03 147.052 L1903.31 147.052 L1903.31 151.08 Q1904.84 148.742 1906.9 147.584 Q1908.98 146.427 1911.69 146.427 Q1916.16 146.427 1918.45 149.205 Q1920.74 151.959 1920.74 157.329 Z" fill="#000000" fill-rule="evenodd" fill-opacity="1" /><path clip-path="url(#clip800)" d="M 0 0 M1950.79 157.329 L1950.79 172.978 L1946.53 172.978 L1946.53 157.468 Q1946.53 153.788 1945.09 151.959 Q1943.66 150.13 1940.79 150.13 Q1937.34 150.13 1935.35 152.33 Q1933.36 154.529 1933.36 158.325 L1933.36 172.978 L1929.07 172.978 L1929.07 147.052 L1933.36 147.052 L1933.36 151.08 Q1934.88 148.742 1936.94 147.584 Q1939.03 146.427 1941.74 146.427 Q1946.2 146.427 1948.49 149.205 Q1950.79 151.959 1950.79 157.329 Z" fill="#000000" fill-rule="evenodd" fill-opacity="1" /><path clip-path="url(#clip800)" d="M 0 0 M1959.28 147.052 L1963.54 147.052 L1963.54 172.978 L1959.28 172.978 L1959.28 147.052 M1959.28 136.959 L1963.54 136.959 L1963.54 142.353 L1959.28 142.353 L1959.28 136.959 Z" fill="#000000" fill-rule="evenodd" fill-opacity="1" /><path clip-path="url(#clip800)" d="M 0 0 M1994 157.329 L1994 172.978 L1989.74 172.978 L1989.74 157.468 Q1989.74 153.788 1988.31 151.959 Q1986.87 150.13 1984 150.13 Q1980.55 150.13 1978.56 152.33 Q1976.57 154.529 1976.57 158.325 L1976.57 172.978 L1972.29 172.978 L1972.29 147.052 L1976.57 147.052 L1976.57 151.08 Q1978.1 148.742 1980.16 147.584 Q1982.24 146.427 1984.95 146.427 Q1989.42 146.427 1991.71 149.205 Q1994 151.959 1994 157.329 Z" fill="#000000" fill-rule="evenodd" fill-opacity="1" /><path clip-path="url(#clip800)" d="M 0 0 M2019.56 159.714 Q2019.56 155.084 2017.64 152.538 Q2015.74 149.992 2012.29 149.992 Q2008.86 149.992 2006.94 152.538 Q2005.04 155.084 2005.04 159.714 Q2005.04 164.32 2006.94 166.866 Q2008.86 169.413 2012.29 169.413 Q2015.74 169.413 2017.64 166.866 Q2019.56 164.32 2019.56 159.714 M2023.82 169.76 Q2023.82 176.38 2020.88 179.598 Q2017.94 182.839 2011.87 182.839 Q2009.63 182.839 2007.64 182.491 Q2005.65 182.167 2003.77 181.473 L2003.77 177.329 Q2005.65 178.348 2007.48 178.834 Q2009.3 179.32 2011.2 179.32 Q2015.39 179.32 2017.48 177.121 Q2019.56 174.945 2019.56 170.524 L2019.56 168.417 Q2018.24 170.709 2016.18 171.843 Q2014.12 172.978 2011.25 172.978 Q2006.48 172.978 2003.56 169.343 Q2000.65 165.709 2000.65 159.714 Q2000.65 153.695 2003.56 150.061 Q2006.48 146.427 2011.25 146.427 Q2014.12 146.427 2016.18 147.561 Q2018.24 148.695 2019.56 150.987 L2019.56 147.052 L2023.82 147.052 L2023.82 169.76 Z" fill="#000000" fill-rule="evenodd" fill-opacity="1" /><path clip-path="url(#clip800)" d="M 0 0 M2060.79 136.959 L2060.79 140.501 L2056.71 140.501 Q2054.42 140.501 2053.52 141.427 Q2052.64 142.353 2052.64 144.76 L2052.64 147.052 L2059.65 147.052 L2059.65 150.362 L2052.64 150.362 L2052.64 172.978 L2048.35 172.978 L2048.35 150.362 L2044.28 150.362 L2044.28 147.052 L2048.35 147.052 L2048.35 145.246 Q2048.35 140.918 2050.37 138.95 Q2052.38 136.959 2056.76 136.959 L2060.79 136.959 Z" fill="#000000" fill-rule="evenodd" fill-opacity="1" /><path clip-path="url(#clip800)" d="M 0 0 M2063.91 162.746 L2063.91 147.052 L2068.17 147.052 L2068.17 162.584 Q2068.17 166.265 2069.6 168.116 Q2071.04 169.945 2073.91 169.945 Q2077.36 169.945 2079.35 167.746 Q2081.36 165.547 2081.36 161.751 L2081.36 147.052 L2085.62 147.052 L2085.62 172.978 L2081.36 172.978 L2081.36 168.996 Q2079.81 171.357 2077.75 172.515 Q2075.72 173.649 2073.01 173.649 Q2068.54 173.649 2066.23 170.871 Q2063.91 168.093 2063.91 162.746 M2074.63 146.427 L2074.63 146.427 Z" fill="#000000" fill-rule="evenodd" fill-opacity="1" /><path clip-path="url(#clip800)" d="M 0 0 M2115.95 157.329 L2115.95 172.978 L2111.69 172.978 L2111.69 157.468 Q2111.69 153.788 2110.25 151.959 Q2108.82 150.13 2105.95 150.13 Q2102.5 150.13 2100.51 152.33 Q2098.52 154.529 2098.52 158.325 L2098.52 172.978 L2094.23 172.978 L2094.23 147.052 L2098.52 147.052 L2098.52 151.08 Q2100.04 148.742 2102.1 147.584 Q2104.19 146.427 2106.9 146.427 Q2111.36 146.427 2113.66 149.205 Q2115.95 151.959 2115.95 157.329 Z" fill="#000000" fill-rule="evenodd" fill-opacity="1" /><path clip-path="url(#clip800)" d="M 0 0 M2143.1 148.047 L2143.1 152.029 Q2141.29 151.033 2139.47 150.547 Q2137.66 150.038 2135.81 150.038 Q2131.66 150.038 2129.37 152.677 Q2127.08 155.292 2127.08 160.038 Q2127.08 164.783 2129.37 167.422 Q2131.66 170.038 2135.81 170.038 Q2137.66 170.038 2139.47 169.552 Q2141.29 169.042 2143.1 168.047 L2143.1 171.982 Q2141.32 172.816 2139.4 173.232 Q2137.5 173.649 2135.35 173.649 Q2129.49 173.649 2126.04 169.968 Q2122.59 166.288 2122.59 160.038 Q2122.59 153.695 2126.06 150.061 Q2129.56 146.427 2135.62 146.427 Q2137.59 146.427 2139.47 146.843 Q2141.34 147.237 2143.1 148.047 Z" fill="#000000" fill-rule="evenodd" fill-opacity="1" /><path clip-path="url(#clip800)" d="M 0 0 M2154.72 139.691 L2154.72 147.052 L2163.49 147.052 L2163.49 150.362 L2154.72 150.362 L2154.72 164.436 Q2154.72 167.607 2155.58 168.51 Q2156.46 169.413 2159.12 169.413 L2163.49 169.413 L2163.49 172.978 L2159.12 172.978 Q2154.19 172.978 2152.31 171.149 Q2150.44 169.297 2150.44 164.436 L2150.44 150.362 L2147.31 150.362 L2147.31 147.052 L2150.44 147.052 L2150.44 139.691 L2154.72 139.691 Z" fill="#000000" fill-rule="evenodd" fill-opacity="1" /><path clip-path="url(#clip800)" d="M 0 0 M2169.09 147.052 L2173.35 147.052 L2173.35 172.978 L2169.09 172.978 L2169.09 147.052 M2169.09 136.959 L2173.35 136.959 L2173.35 142.353 L2169.09 142.353 L2169.09 136.959 Z" fill="#000000" fill-rule="evenodd" fill-opacity="1" /><path clip-path="url(#clip800)" d="M 0 0 M2192.31 150.038 Q2188.89 150.038 2186.9 152.723 Q2184.91 155.385 2184.91 160.038 Q2184.91 164.691 2186.87 167.376 Q2188.86 170.038 2192.31 170.038 Q2195.72 170.038 2197.71 167.353 Q2199.7 164.667 2199.7 160.038 Q2199.7 155.431 2197.71 152.746 Q2195.72 150.038 2192.31 150.038 M2192.31 146.427 Q2197.87 146.427 2201.04 150.038 Q2204.21 153.649 2204.21 160.038 Q2204.21 166.404 2201.04 170.038 Q2197.87 173.649 2192.31 173.649 Q2186.73 173.649 2183.56 170.038 Q2180.41 166.404 2180.41 160.038 Q2180.41 153.649 2183.56 150.038 Q2186.73 146.427 2192.31 146.427 Z" fill="#000000" fill-rule="evenodd" fill-opacity="1" /><path clip-path="url(#clip800)" d="M 0 0 M2232.82 157.329 L2232.82 172.978 L2228.56 172.978 L2228.56 157.468 Q2228.56 153.788 2227.13 151.959 Q2225.69 150.13 2222.82 150.13 Q2219.37 150.13 2217.38 152.33 Q2215.39 154.529 2215.39 158.325 L2215.39 172.978 L2211.11 172.978 L2211.11 147.052 L2215.39 147.052 L2215.39 151.08 Q2216.92 148.742 2218.98 147.584 Q2221.06 146.427 2223.77 146.427 Q2228.24 146.427 2230.53 149.205 Q2232.82 151.959 2232.82 157.329 Z" fill="#000000" fill-rule="evenodd" fill-opacity="1" /><polyline clip-path="url(#clip800)" style="stroke:#ff0000; stroke-width:4; stroke-opacity:1; fill:none" points="
  1687.86,216.178 1831.78,216.178 
  "/>
<path clip-path="url(#clip800)" d="M 0 0 M1874.19 208.296 L1874.19 212.323 Q1872.38 211.397 1870.44 210.935 Q1868.49 210.472 1866.41 210.472 Q1863.24 210.472 1861.64 211.444 Q1860.07 212.416 1860.07 214.36 Q1860.07 215.842 1861.2 216.698 Q1862.34 217.532 1865.76 218.296 L1867.22 218.62 Q1871.76 219.592 1873.66 221.374 Q1875.58 223.134 1875.58 226.305 Q1875.58 229.916 1872.71 232.022 Q1869.86 234.129 1864.86 234.129 Q1862.78 234.129 1860.51 233.712 Q1858.26 233.319 1855.76 232.508 L1855.76 228.11 Q1858.12 229.337 1860.42 229.962 Q1862.71 230.564 1864.95 230.564 Q1867.96 230.564 1869.58 229.546 Q1871.2 228.504 1871.2 226.629 Q1871.2 224.893 1870.02 223.967 Q1868.87 223.041 1864.91 222.184 L1863.43 221.837 Q1859.47 221.004 1857.71 219.291 Q1855.95 217.555 1855.95 214.546 Q1855.95 210.888 1858.54 208.898 Q1861.13 206.907 1865.9 206.907 Q1868.26 206.907 1870.35 207.254 Q1872.43 207.601 1874.19 208.296 Z" fill="#000000" fill-rule="evenodd" fill-opacity="1" /><path clip-path="url(#clip800)" d="M 0 0 M1882.36 207.532 L1886.62 207.532 L1886.62 233.458 L1882.36 233.458 L1882.36 207.532 M1882.36 197.439 L1886.62 197.439 L1886.62 202.833 L1882.36 202.833 L1882.36 197.439 Z" fill="#000000" fill-rule="evenodd" fill-opacity="1" /><path clip-path="url(#clip800)" d="M 0 0 M1912.59 220.194 Q1912.59 215.564 1910.67 213.018 Q1908.77 210.472 1905.32 210.472 Q1901.9 210.472 1899.98 213.018 Q1898.08 215.564 1898.08 220.194 Q1898.08 224.8 1899.98 227.346 Q1901.9 229.893 1905.32 229.893 Q1908.77 229.893 1910.67 227.346 Q1912.59 224.8 1912.59 220.194 M1916.85 230.24 Q1916.85 236.86 1913.91 240.078 Q1910.97 243.319 1904.91 243.319 Q1902.66 243.319 1900.67 242.971 Q1898.68 242.647 1896.8 241.953 L1896.8 237.809 Q1898.68 238.828 1900.51 239.314 Q1902.34 239.8 1904.24 239.8 Q1908.43 239.8 1910.51 237.601 Q1912.59 235.425 1912.59 231.004 L1912.59 228.897 Q1911.27 231.189 1909.21 232.323 Q1907.15 233.458 1904.28 233.458 Q1899.51 233.458 1896.6 229.823 Q1893.68 226.189 1893.68 220.194 Q1893.68 214.175 1896.6 210.541 Q1899.51 206.907 1904.28 206.907 Q1907.15 206.907 1909.21 208.041 Q1911.27 209.175 1912.59 211.467 L1912.59 207.532 L1916.85 207.532 L1916.85 230.24 Z" fill="#000000" fill-rule="evenodd" fill-opacity="1" /><path clip-path="url(#clip800)" d="M 0 0 M1947.17 217.809 L1947.17 233.458 L1942.92 233.458 L1942.92 217.948 Q1942.92 214.268 1941.48 212.439 Q1940.05 210.61 1937.17 210.61 Q1933.73 210.61 1931.74 212.81 Q1929.74 215.009 1929.74 218.805 L1929.74 233.458 L1925.46 233.458 L1925.46 207.532 L1929.74 207.532 L1929.74 211.56 Q1931.27 209.222 1933.33 208.064 Q1935.42 206.907 1938.12 206.907 Q1942.59 206.907 1944.88 209.685 Q1947.17 212.439 1947.17 217.809 Z" fill="#000000" fill-rule="evenodd" fill-opacity="1" /><path clip-path="url(#clip800)" d="M 0 0 M1967.45 220.425 Q1962.29 220.425 1960.3 221.606 Q1958.31 222.786 1958.31 225.634 Q1958.31 227.902 1959.79 229.245 Q1961.3 230.564 1963.86 230.564 Q1967.41 230.564 1969.54 228.064 Q1971.69 225.541 1971.69 221.374 L1971.69 220.425 L1967.45 220.425 M1975.95 218.666 L1975.95 233.458 L1971.69 233.458 L1971.69 229.522 Q1970.23 231.883 1968.05 233.018 Q1965.88 234.129 1962.73 234.129 Q1958.75 234.129 1956.39 231.907 Q1954.05 229.661 1954.05 225.911 Q1954.05 221.536 1956.97 219.314 Q1959.91 217.092 1965.72 217.092 L1971.69 217.092 L1971.69 216.675 Q1971.69 213.735 1969.74 212.138 Q1967.82 210.518 1964.33 210.518 Q1962.11 210.518 1960 211.05 Q1957.89 211.583 1955.95 212.647 L1955.95 208.712 Q1958.29 207.81 1960.48 207.37 Q1962.68 206.907 1964.77 206.907 Q1970.39 206.907 1973.17 209.823 Q1975.95 212.74 1975.95 218.666 Z" fill="#000000" fill-rule="evenodd" fill-opacity="1" /><path clip-path="url(#clip800)" d="M 0 0 M1984.72 197.439 L1988.98 197.439 L1988.98 233.458 L1984.72 233.458 L1984.72 197.439 Z" fill="#000000" fill-rule="evenodd" fill-opacity="1" /><polyline clip-path="url(#clip800)" style="stroke:#008000; stroke-width:4; stroke-opacity:1; fill:none" points="
  1687.86,276.658 1831.78,276.658 
  "/>
<path clip-path="url(#clip800)" d="M 0 0 M1874.54 280.998 Q1874.54 276.299 1872.59 273.637 Q1870.67 270.952 1867.29 270.952 Q1863.91 270.952 1861.97 273.637 Q1860.05 276.299 1860.05 280.998 Q1860.05 285.697 1861.97 288.382 Q1863.91 291.044 1867.29 291.044 Q1870.67 291.044 1872.59 288.382 Q1874.54 285.697 1874.54 280.998 M1860.05 271.947 Q1861.39 269.632 1863.43 268.521 Q1865.49 267.387 1868.33 267.387 Q1873.05 267.387 1875.99 271.137 Q1878.96 274.887 1878.96 280.998 Q1878.96 287.109 1875.99 290.859 Q1873.05 294.609 1868.33 294.609 Q1865.49 294.609 1863.43 293.498 Q1861.39 292.363 1860.05 290.049 L1860.05 293.938 L1855.76 293.938 L1855.76 257.919 L1860.05 257.919 L1860.05 271.947 Z" fill="#000000" fill-rule="evenodd" fill-opacity="1" /><path clip-path="url(#clip800)" d="M 0 0 M1886.02 268.012 L1890.28 268.012 L1890.28 293.938 L1886.02 293.938 L1886.02 268.012 M1886.02 257.919 L1890.28 257.919 L1890.28 263.313 L1886.02 263.313 L1886.02 257.919 Z" fill="#000000" fill-rule="evenodd" fill-opacity="1" /><path clip-path="url(#clip800)" d="M 0 0 M1920.74 278.289 L1920.74 293.938 L1916.48 293.938 L1916.48 278.428 Q1916.48 274.748 1915.05 272.919 Q1913.61 271.09 1910.74 271.09 Q1907.29 271.09 1905.3 273.29 Q1903.31 275.489 1903.31 279.285 L1903.31 293.938 L1899.03 293.938 L1899.03 268.012 L1903.31 268.012 L1903.31 272.04 Q1904.84 269.702 1906.9 268.544 Q1908.98 267.387 1911.69 267.387 Q1916.16 267.387 1918.45 270.165 Q1920.74 272.919 1920.74 278.289 Z" fill="#000000" fill-rule="evenodd" fill-opacity="1" /><path clip-path="url(#clip800)" d="M 0 0 M1950.79 278.289 L1950.79 293.938 L1946.53 293.938 L1946.53 278.428 Q1946.53 274.748 1945.09 272.919 Q1943.66 271.09 1940.79 271.09 Q1937.34 271.09 1935.35 273.29 Q1933.36 275.489 1933.36 279.285 L1933.36 293.938 L1929.07 293.938 L1929.07 268.012 L1933.36 268.012 L1933.36 272.04 Q1934.88 269.702 1936.94 268.544 Q1939.03 267.387 1941.74 267.387 Q1946.2 267.387 1948.49 270.165 Q1950.79 272.919 1950.79 278.289 Z" fill="#000000" fill-rule="evenodd" fill-opacity="1" /><path clip-path="url(#clip800)" d="M 0 0 M1981.46 279.91 L1981.46 281.993 L1961.87 281.993 Q1962.15 286.391 1964.51 288.706 Q1966.9 290.998 1971.13 290.998 Q1973.59 290.998 1975.88 290.396 Q1978.19 289.794 1980.46 288.59 L1980.46 292.618 Q1978.17 293.59 1975.76 294.1 Q1973.36 294.609 1970.88 294.609 Q1964.67 294.609 1961.04 290.998 Q1957.43 287.387 1957.43 281.229 Q1957.43 274.864 1960.86 271.137 Q1964.3 267.387 1970.14 267.387 Q1975.37 267.387 1978.4 270.766 Q1981.46 274.123 1981.46 279.91 M1977.2 278.66 Q1977.15 275.165 1975.23 273.081 Q1973.33 270.998 1970.18 270.998 Q1966.62 270.998 1964.47 273.012 Q1962.34 275.026 1962.01 278.683 L1977.2 278.66 Z" fill="#000000" fill-rule="evenodd" fill-opacity="1" /><path clip-path="url(#clip800)" d="M 0 0 M2005.51 271.947 L2005.51 257.919 L2009.77 257.919 L2009.77 293.938 L2005.51 293.938 L2005.51 290.049 Q2004.17 292.363 2002.11 293.498 Q2000.07 294.609 1997.2 294.609 Q1992.5 294.609 1989.54 290.859 Q1986.6 287.109 1986.6 280.998 Q1986.6 274.887 1989.54 271.137 Q1992.5 267.387 1997.2 267.387 Q2000.07 267.387 2002.11 268.521 Q2004.17 269.632 2005.51 271.947 M1990.99 280.998 Q1990.99 285.697 1992.92 288.382 Q1994.86 291.044 1998.24 291.044 Q2001.62 291.044 2003.56 288.382 Q2005.51 285.697 2005.51 280.998 Q2005.51 276.299 2003.56 273.637 Q2001.62 270.952 1998.24 270.952 Q1994.86 270.952 1992.92 273.637 Q1990.99 276.299 1990.99 280.998 Z" fill="#000000" fill-rule="evenodd" fill-opacity="1" /><path clip-path="url(#clip800)" d="M 0 0 M2050.14 268.776 L2050.14 272.803 Q2048.33 271.877 2046.39 271.415 Q2044.44 270.952 2042.36 270.952 Q2039.19 270.952 2037.59 271.924 Q2036.02 272.896 2036.02 274.84 Q2036.02 276.322 2037.15 277.178 Q2038.29 278.012 2041.71 278.776 L2043.17 279.1 Q2047.71 280.072 2049.6 281.854 Q2051.53 283.614 2051.53 286.785 Q2051.53 290.396 2048.66 292.502 Q2045.81 294.609 2040.81 294.609 Q2038.73 294.609 2036.46 294.192 Q2034.21 293.799 2031.71 292.988 L2031.71 288.59 Q2034.07 289.817 2036.36 290.442 Q2038.66 291.044 2040.9 291.044 Q2043.91 291.044 2045.53 290.026 Q2047.15 288.984 2047.15 287.109 Q2047.15 285.373 2045.97 284.447 Q2044.81 283.521 2040.85 282.664 L2039.37 282.317 Q2035.42 281.484 2033.66 279.771 Q2031.9 278.035 2031.9 275.026 Q2031.9 271.368 2034.49 269.378 Q2037.08 267.387 2041.85 267.387 Q2044.21 267.387 2046.29 267.734 Q2048.38 268.081 2050.14 268.776 Z" fill="#000000" fill-rule="evenodd" fill-opacity="1" /><path clip-path="url(#clip800)" d="M 0 0 M2058.31 268.012 L2062.57 268.012 L2062.57 293.938 L2058.31 293.938 L2058.31 268.012 M2058.31 257.919 L2062.57 257.919 L2062.57 263.313 L2058.31 263.313 L2058.31 257.919 Z" fill="#000000" fill-rule="evenodd" fill-opacity="1" /><path clip-path="url(#clip800)" d="M 0 0 M2088.54 280.674 Q2088.54 276.044 2086.62 273.498 Q2084.72 270.952 2081.27 270.952 Q2077.85 270.952 2075.92 273.498 Q2074.03 276.044 2074.03 280.674 Q2074.03 285.28 2075.92 287.826 Q2077.85 290.373 2081.27 290.373 Q2084.72 290.373 2086.62 287.826 Q2088.54 285.28 2088.54 280.674 M2092.8 290.72 Q2092.8 297.34 2089.86 300.558 Q2086.92 303.799 2080.85 303.799 Q2078.61 303.799 2076.62 303.451 Q2074.63 303.127 2072.75 302.433 L2072.75 298.289 Q2074.63 299.308 2076.46 299.794 Q2078.29 300.28 2080.18 300.28 Q2084.37 300.28 2086.46 298.081 Q2088.54 295.905 2088.54 291.484 L2088.54 289.377 Q2087.22 291.669 2085.16 292.803 Q2083.1 293.938 2080.23 293.938 Q2075.46 293.938 2072.54 290.303 Q2069.63 286.669 2069.63 280.674 Q2069.63 274.655 2072.54 271.021 Q2075.46 267.387 2080.23 267.387 Q2083.1 267.387 2085.16 268.521 Q2087.22 269.655 2088.54 271.947 L2088.54 268.012 L2092.8 268.012 L2092.8 290.72 Z" fill="#000000" fill-rule="evenodd" fill-opacity="1" /><path clip-path="url(#clip800)" d="M 0 0 M2123.12 278.289 L2123.12 293.938 L2118.86 293.938 L2118.86 278.428 Q2118.86 274.748 2117.43 272.919 Q2115.99 271.09 2113.12 271.09 Q2109.67 271.09 2107.68 273.29 Q2105.69 275.489 2105.69 279.285 L2105.69 293.938 L2101.41 293.938 L2101.41 268.012 L2105.69 268.012 L2105.69 272.04 Q2107.22 269.702 2109.28 268.544 Q2111.36 267.387 2114.07 267.387 Q2118.54 267.387 2120.83 270.165 Q2123.12 272.919 2123.12 278.289 Z" fill="#000000" fill-rule="evenodd" fill-opacity="1" /><path clip-path="url(#clip800)" d="M 0 0 M2143.4 280.905 Q2138.24 280.905 2136.25 282.086 Q2134.26 283.266 2134.26 286.114 Q2134.26 288.382 2135.74 289.725 Q2137.24 291.044 2139.81 291.044 Q2143.35 291.044 2145.48 288.544 Q2147.64 286.021 2147.64 281.854 L2147.64 280.905 L2143.4 280.905 M2151.9 279.146 L2151.9 293.938 L2147.64 293.938 L2147.64 290.002 Q2146.18 292.363 2144 293.498 Q2141.83 294.609 2138.68 294.609 Q2134.7 294.609 2132.34 292.387 Q2130 290.141 2130 286.391 Q2130 282.016 2132.91 279.794 Q2135.85 277.572 2141.66 277.572 L2147.64 277.572 L2147.64 277.155 Q2147.64 274.215 2145.69 272.618 Q2143.77 270.998 2140.28 270.998 Q2138.05 270.998 2135.95 271.53 Q2133.84 272.063 2131.9 273.127 L2131.9 269.192 Q2134.23 268.29 2136.43 267.85 Q2138.63 267.387 2140.72 267.387 Q2146.34 267.387 2149.12 270.303 Q2151.9 273.22 2151.9 279.146 Z" fill="#000000" fill-rule="evenodd" fill-opacity="1" /><path clip-path="url(#clip800)" d="M 0 0 M2160.67 257.919 L2164.93 257.919 L2164.93 293.938 L2160.67 293.938 L2160.67 257.919 Z" fill="#000000" fill-rule="evenodd" fill-opacity="1" /></svg>
