<?xml version="1.0" encoding="utf-8"?>
<svg xmlns="http://www.w3.org/2000/svg" xmlns:xlink="http://www.w3.org/1999/xlink" width="600" height="400" viewBox="0 0 2400 1600">
<defs>
  <clipPath id="clip740">
    <rect x="0" y="0" width="2400" height="1600"/>
  </clipPath>
</defs>
<path clip-path="url(#clip740)" d="
M0 1600 L2400 1600 L2400 0 L0 0  Z
  " fill="#ffffff" fill-rule="evenodd" fill-opacity="1"/>
<defs>
  <clipPath id="clip741">
    <rect x="480" y="0" width="1681" height="1600"/>
  </clipPath>
</defs>
<path clip-path="url(#clip740)" d="
M212.459 1423.18 L2352.76 1423.18 L2352.76 47.2441 L212.459 47.2441  Z
  " fill="#ffffff" fill-rule="evenodd" fill-opacity="1"/>
<defs>
  <clipPath id="clip742">
    <rect x="212" y="47" width="2141" height="1377"/>
  </clipPath>
</defs>
<polyline clip-path="url(#clip742)" style="stroke:#000000; stroke-width:2; stroke-opacity:0.1; fill:none" points="
  273.033,1423.18 273.033,47.2441 
  "/>
<polyline clip-path="url(#clip742)" style="stroke:#000000; stroke-width:2; stroke-opacity:0.1; fill:none" points="
  777.82,1423.18 777.82,47.2441 
  "/>
<polyline clip-path="url(#clip742)" style="stroke:#000000; stroke-width:2; stroke-opacity:0.1; fill:none" points="
  1282.61,1423.18 1282.61,47.2441 
  "/>
<polyline clip-path="url(#clip742)" style="stroke:#000000; stroke-width:2; stroke-opacity:0.1; fill:none" points="
  1787.39,1423.18 1787.39,47.2441 
  "/>
<polyline clip-path="url(#clip742)" style="stroke:#000000; stroke-width:2; stroke-opacity:0.1; fill:none" points="
  2292.18,1423.18 2292.18,47.2441 
  "/>
<polyline clip-path="url(#clip740)" style="stroke:#000000; stroke-width:4; stroke-opacity:1; fill:none" points="
  212.459,1423.18 2352.76,1423.18 
  "/>
<polyline clip-path="url(#clip740)" style="stroke:#000000; stroke-width:4; stroke-opacity:1; fill:none" points="
  273.033,1423.18 273.033,1406.67 
  "/>
<polyline clip-path="url(#clip740)" style="stroke:#000000; stroke-width:4; stroke-opacity:1; fill:none" points="
  777.82,1423.18 777.82,1406.67 
  "/>
<polyline clip-path="url(#clip740)" style="stroke:#000000; stroke-width:4; stroke-opacity:1; fill:none" points="
  1282.61,1423.18 1282.61,1406.67 
  "/>
<polyline clip-path="url(#clip740)" style="stroke:#000000; stroke-width:4; stroke-opacity:1; fill:none" points="
  1787.39,1423.18 1787.39,1406.67 
  "/>
<polyline clip-path="url(#clip740)" style="stroke:#000000; stroke-width:4; stroke-opacity:1; fill:none" points="
  2292.18,1423.18 2292.18,1406.67 
  "/>
<path clip-path="url(#clip740)" d="M 0 0 M250.418 1452.37 Q246.807 1452.37 244.978 1455.94 Q243.172 1459.48 243.172 1466.61 Q243.172 1473.71 244.978 1477.28 Q246.807 1480.82 250.418 1480.82 Q254.052 1480.82 255.858 1477.28 Q257.686 1473.71 257.686 1466.61 Q257.686 1459.48 255.858 1455.94 Q254.052 1452.37 250.418 1452.37 M250.418 1448.67 Q256.228 1448.67 259.283 1453.27 Q262.362 1457.86 262.362 1466.61 Q262.362 1475.33 259.283 1479.94 Q256.228 1484.52 250.418 1484.52 Q244.608 1484.52 241.529 1479.94 Q238.473 1475.33 238.473 1466.61 Q238.473 1457.86 241.529 1453.27 Q244.608 1448.67 250.418 1448.67 Z" fill="#000000" fill-rule="evenodd" fill-opacity="1" /><path clip-path="url(#clip740)" d="M 0 0 M270.58 1477.97 L275.464 1477.97 L275.464 1483.85 L270.58 1483.85 L270.58 1477.97 Z" fill="#000000" fill-rule="evenodd" fill-opacity="1" /><path clip-path="url(#clip740)" d="M 0 0 M295.649 1452.37 Q292.038 1452.37 290.209 1455.94 Q288.404 1459.48 288.404 1466.61 Q288.404 1473.71 290.209 1477.28 Q292.038 1480.82 295.649 1480.82 Q299.283 1480.82 301.089 1477.28 Q302.917 1473.71 302.917 1466.61 Q302.917 1459.48 301.089 1455.94 Q299.283 1452.37 295.649 1452.37 M295.649 1448.67 Q301.459 1448.67 304.515 1453.27 Q307.593 1457.86 307.593 1466.61 Q307.593 1475.33 304.515 1479.94 Q301.459 1484.52 295.649 1484.52 Q289.839 1484.52 286.76 1479.94 Q283.705 1475.33 283.705 1466.61 Q283.705 1457.86 286.76 1453.27 Q289.839 1448.67 295.649 1448.67 Z" fill="#000000" fill-rule="evenodd" fill-opacity="1" /><path clip-path="url(#clip740)" d="M 0 0 M749.557 1479.92 L765.876 1479.92 L765.876 1483.85 L743.932 1483.85 L743.932 1479.92 Q746.594 1477.16 751.177 1472.53 Q755.783 1467.88 756.964 1466.54 Q759.209 1464.01 760.089 1462.28 Q760.992 1460.52 760.992 1458.83 Q760.992 1456.07 759.047 1454.34 Q757.126 1452.6 754.024 1452.6 Q751.825 1452.6 749.371 1453.37 Q746.941 1454.13 744.163 1455.68 L744.163 1450.96 Q746.987 1449.82 749.441 1449.25 Q751.895 1448.67 753.932 1448.67 Q759.302 1448.67 762.496 1451.35 Q765.691 1454.04 765.691 1458.53 Q765.691 1460.66 764.881 1462.58 Q764.094 1464.48 761.987 1467.07 Q761.408 1467.74 758.307 1470.96 Q755.205 1474.15 749.557 1479.92 Z" fill="#000000" fill-rule="evenodd" fill-opacity="1" /><path clip-path="url(#clip740)" d="M 0 0 M775.691 1477.97 L780.575 1477.97 L780.575 1483.85 L775.691 1483.85 L775.691 1477.97 Z" fill="#000000" fill-rule="evenodd" fill-opacity="1" /><path clip-path="url(#clip740)" d="M 0 0 M790.806 1449.29 L809.163 1449.29 L809.163 1453.23 L795.089 1453.23 L795.089 1461.7 Q796.107 1461.35 797.126 1461.19 Q798.144 1461 799.163 1461 Q804.95 1461 808.329 1464.18 Q811.709 1467.35 811.709 1472.76 Q811.709 1478.34 808.237 1481.44 Q804.765 1484.52 798.445 1484.52 Q796.269 1484.52 794.001 1484.15 Q791.755 1483.78 789.348 1483.04 L789.348 1478.34 Q791.431 1479.48 793.654 1480.03 Q795.876 1480.59 798.353 1480.59 Q802.357 1480.59 804.695 1478.48 Q807.033 1476.38 807.033 1472.76 Q807.033 1469.15 804.695 1467.05 Q802.357 1464.94 798.353 1464.94 Q796.478 1464.94 794.603 1465.36 Q792.751 1465.77 790.806 1466.65 L790.806 1449.29 Z" fill="#000000" fill-rule="evenodd" fill-opacity="1" /><path clip-path="url(#clip740)" d="M 0 0 M1249.77 1449.29 L1268.13 1449.29 L1268.13 1453.23 L1254.05 1453.23 L1254.05 1461.7 Q1255.07 1461.35 1256.09 1461.19 Q1257.11 1461 1258.13 1461 Q1263.92 1461 1267.29 1464.18 Q1270.67 1467.35 1270.67 1472.76 Q1270.67 1478.34 1267.2 1481.44 Q1263.73 1484.52 1257.41 1484.52 Q1255.23 1484.52 1252.97 1484.15 Q1250.72 1483.78 1248.31 1483.04 L1248.31 1478.34 Q1250.4 1479.48 1252.62 1480.03 Q1254.84 1480.59 1257.32 1480.59 Q1261.32 1480.59 1263.66 1478.48 Q1266 1476.38 1266 1472.76 Q1266 1469.15 1263.66 1467.05 Q1261.32 1464.94 1257.32 1464.94 Q1255.44 1464.94 1253.57 1465.36 Q1251.72 1465.77 1249.77 1466.65 L1249.77 1449.29 Z" fill="#000000" fill-rule="evenodd" fill-opacity="1" /><path clip-path="url(#clip740)" d="M 0 0 M1279.89 1477.97 L1284.77 1477.97 L1284.77 1483.85 L1279.89 1483.85 L1279.89 1477.97 Z" fill="#000000" fill-rule="evenodd" fill-opacity="1" /><path clip-path="url(#clip740)" d="M 0 0 M1304.96 1452.37 Q1301.35 1452.37 1299.52 1455.94 Q1297.71 1459.48 1297.71 1466.61 Q1297.71 1473.71 1299.52 1477.28 Q1301.35 1480.82 1304.96 1480.82 Q1308.59 1480.82 1310.4 1477.28 Q1312.23 1473.71 1312.23 1466.61 Q1312.23 1459.48 1310.4 1455.94 Q1308.59 1452.37 1304.96 1452.37 M1304.96 1448.67 Q1310.77 1448.67 1313.82 1453.27 Q1316.9 1457.86 1316.9 1466.61 Q1316.9 1475.33 1313.82 1479.94 Q1310.77 1484.52 1304.96 1484.52 Q1299.15 1484.52 1296.07 1479.94 Q1293.01 1475.33 1293.01 1466.61 Q1293.01 1457.86 1296.07 1453.27 Q1299.15 1448.67 1304.96 1448.67 Z" fill="#000000" fill-rule="evenodd" fill-opacity="1" /><path clip-path="url(#clip740)" d="M 0 0 M1753.71 1449.29 L1775.94 1449.29 L1775.94 1451.28 L1763.39 1483.85 L1758.51 1483.85 L1770.31 1453.23 L1753.71 1453.23 L1753.71 1449.29 Z" fill="#000000" fill-rule="evenodd" fill-opacity="1" /><path clip-path="url(#clip740)" d="M 0 0 M1785.06 1477.97 L1789.94 1477.97 L1789.94 1483.85 L1785.06 1483.85 L1785.06 1477.97 Z" fill="#000000" fill-rule="evenodd" fill-opacity="1" /><path clip-path="url(#clip740)" d="M 0 0 M1800.17 1449.29 L1818.53 1449.29 L1818.53 1453.23 L1804.45 1453.23 L1804.45 1461.7 Q1805.47 1461.35 1806.49 1461.19 Q1807.51 1461 1808.53 1461 Q1814.32 1461 1817.7 1464.18 Q1821.07 1467.35 1821.07 1472.76 Q1821.07 1478.34 1817.6 1481.44 Q1814.13 1484.52 1807.81 1484.52 Q1805.64 1484.52 1803.37 1484.15 Q1801.12 1483.78 1798.71 1483.04 L1798.71 1478.34 Q1800.8 1479.48 1803.02 1480.03 Q1805.24 1480.59 1807.72 1480.59 Q1811.72 1480.59 1814.06 1478.48 Q1816.4 1476.38 1816.4 1472.76 Q1816.4 1469.15 1814.06 1467.05 Q1811.72 1464.94 1807.72 1464.94 Q1805.84 1464.94 1803.97 1465.36 Q1802.12 1465.77 1800.17 1466.65 L1800.17 1449.29 Z" fill="#000000" fill-rule="evenodd" fill-opacity="1" /><path clip-path="url(#clip740)" d="M 0 0 M2244.25 1479.92 L2251.89 1479.92 L2251.89 1453.55 L2243.58 1455.22 L2243.58 1450.96 L2251.85 1449.29 L2256.52 1449.29 L2256.52 1479.92 L2264.16 1479.92 L2264.16 1483.85 L2244.25 1483.85 L2244.25 1479.92 Z" fill="#000000" fill-rule="evenodd" fill-opacity="1" /><path clip-path="url(#clip740)" d="M 0 0 M2283.61 1452.37 Q2279.99 1452.37 2278.17 1455.94 Q2276.36 1459.48 2276.36 1466.61 Q2276.36 1473.71 2278.17 1477.28 Q2279.99 1480.82 2283.61 1480.82 Q2287.24 1480.82 2289.04 1477.28 Q2290.87 1473.71 2290.87 1466.61 Q2290.87 1459.48 2289.04 1455.94 Q2287.24 1452.37 2283.61 1452.37 M2283.61 1448.67 Q2289.42 1448.67 2292.47 1453.27 Q2295.55 1457.86 2295.55 1466.61 Q2295.55 1475.33 2292.47 1479.94 Q2289.42 1484.52 2283.61 1484.52 Q2277.79 1484.52 2274.72 1479.94 Q2271.66 1475.33 2271.66 1466.61 Q2271.66 1457.86 2274.72 1453.27 Q2277.79 1448.67 2283.61 1448.67 Z" fill="#000000" fill-rule="evenodd" fill-opacity="1" /><path clip-path="url(#clip740)" d="M 0 0 M2303.77 1477.97 L2308.65 1477.97 L2308.65 1483.85 L2303.77 1483.85 L2303.77 1477.97 Z" fill="#000000" fill-rule="evenodd" fill-opacity="1" /><path clip-path="url(#clip740)" d="M 0 0 M2328.84 1452.37 Q2325.23 1452.37 2323.4 1455.94 Q2321.59 1459.48 2321.59 1466.61 Q2321.59 1473.71 2323.4 1477.28 Q2325.23 1480.82 2328.84 1480.82 Q2332.47 1480.82 2334.28 1477.28 Q2336.1 1473.71 2336.1 1466.61 Q2336.1 1459.48 2334.28 1455.94 Q2332.47 1452.37 2328.84 1452.37 M2328.84 1448.67 Q2334.65 1448.67 2337.7 1453.27 Q2340.78 1457.86 2340.78 1466.61 Q2340.78 1475.33 2337.7 1479.94 Q2334.65 1484.52 2328.84 1484.52 Q2323.03 1484.52 2319.95 1479.94 Q2316.89 1475.33 2316.89 1466.61 Q2316.89 1457.86 2319.95 1453.27 Q2323.03 1448.67 2328.84 1448.67 Z" fill="#000000" fill-rule="evenodd" fill-opacity="1" /><path clip-path="url(#clip740)" d="M 0 0 M1221.37 1550.25 Q1221.37 1543.79 1218.7 1540.13 Q1216.05 1536.44 1211.41 1536.44 Q1206.76 1536.44 1204.09 1540.13 Q1201.44 1543.79 1201.44 1550.25 Q1201.44 1556.71 1204.09 1560.4 Q1206.76 1564.07 1211.41 1564.07 Q1216.05 1564.07 1218.7 1560.4 Q1221.37 1556.71 1221.37 1550.25 M1201.44 1537.81 Q1203.29 1534.62 1206.09 1533.1 Q1208.92 1531.54 1212.84 1531.54 Q1219.33 1531.54 1223.37 1536.69 Q1227.45 1541.85 1227.45 1550.25 Q1227.45 1558.65 1223.37 1563.81 Q1219.33 1568.97 1212.84 1568.97 Q1208.92 1568.97 1206.09 1567.44 Q1203.29 1565.88 1201.44 1562.7 L1201.44 1568.04 L1195.56 1568.04 L1195.56 1518.52 L1201.44 1518.52 L1201.44 1537.81 Z" fill="#000000" fill-rule="evenodd" fill-opacity="1" /><path clip-path="url(#clip740)" d="M 0 0 M1237.16 1532.4 L1243.01 1532.4 L1243.01 1568.04 L1237.16 1568.04 L1237.16 1532.4 M1237.16 1518.52 L1243.01 1518.52 L1243.01 1525.93 L1237.16 1525.93 L1237.16 1518.52 Z" fill="#000000" fill-rule="evenodd" fill-opacity="1" /><path clip-path="url(#clip740)" d="M 0 0 M1284.9 1546.53 L1284.9 1568.04 L1279.04 1568.04 L1279.04 1546.72 Q1279.04 1541.66 1277.07 1539.14 Q1275.1 1536.63 1271.15 1536.63 Q1266.41 1536.63 1263.67 1539.65 Q1260.93 1542.68 1260.93 1547.9 L1260.93 1568.04 L1255.04 1568.04 L1255.04 1532.4 L1260.93 1532.4 L1260.93 1537.93 Q1263.03 1534.72 1265.87 1533.13 Q1268.73 1531.54 1272.45 1531.54 Q1278.6 1531.54 1281.75 1535.36 Q1284.9 1539.14 1284.9 1546.53 Z" fill="#000000" fill-rule="evenodd" fill-opacity="1" /><path clip-path="url(#clip740)" d="M 0 0 M1310.65 1518.58 Q1306.38 1525.9 1304.31 1533.06 Q1302.25 1540.23 1302.25 1547.58 Q1302.25 1554.93 1304.31 1562.16 Q1306.42 1569.35 1310.65 1576.64 L1305.56 1576.64 Q1300.78 1569.16 1298.39 1561.93 Q1296.04 1554.71 1296.04 1547.58 Q1296.04 1540.48 1298.39 1533.29 Q1300.75 1526.09 1305.56 1518.58 L1310.65 1518.58 Z" fill="#000000" fill-rule="evenodd" fill-opacity="1" /><path clip-path="url(#clip740)" d="M 0 0 M1344.74 1533.45 L1344.74 1538.98 Q1342.25 1537.71 1339.58 1537.07 Q1336.91 1536.44 1334.04 1536.44 Q1329.68 1536.44 1327.49 1537.77 Q1325.32 1539.11 1325.32 1541.79 Q1325.32 1543.82 1326.88 1545 Q1328.44 1546.15 1333.15 1547.2 L1335.16 1547.64 Q1341.39 1548.98 1344 1551.43 Q1346.65 1553.85 1346.65 1558.21 Q1346.65 1563.17 1342.7 1566.07 Q1338.78 1568.97 1331.91 1568.97 Q1329.05 1568.97 1325.93 1568.39 Q1322.84 1567.85 1319.4 1566.74 L1319.4 1560.69 Q1322.65 1562.38 1325.8 1563.24 Q1328.95 1564.07 1332.04 1564.07 Q1336.17 1564.07 1338.4 1562.66 Q1340.63 1561.23 1340.63 1558.65 Q1340.63 1556.27 1339.01 1554.99 Q1337.42 1553.72 1331.97 1552.54 L1329.94 1552.07 Q1324.49 1550.92 1322.07 1548.56 Q1319.66 1546.18 1319.66 1542.04 Q1319.66 1537.01 1323.22 1534.27 Q1326.79 1531.54 1333.34 1531.54 Q1336.59 1531.54 1339.45 1532.01 Q1342.32 1532.49 1344.74 1533.45 Z" fill="#000000" fill-rule="evenodd" fill-opacity="1" /><path clip-path="url(#clip740)" d="M 0 0 M1355.05 1518.58 L1360.14 1518.58 Q1364.92 1526.09 1367.27 1533.29 Q1369.66 1540.48 1369.66 1547.58 Q1369.66 1554.71 1367.27 1561.93 Q1364.92 1569.16 1360.14 1576.64 L1355.05 1576.64 Q1359.28 1569.35 1361.35 1562.16 Q1363.45 1554.93 1363.45 1547.58 Q1363.45 1540.23 1361.35 1533.06 Q1359.28 1525.9 1355.05 1518.58 Z" fill="#000000" fill-rule="evenodd" fill-opacity="1" /><polyline clip-path="url(#clip742)" style="stroke:#000000; stroke-width:2; stroke-opacity:0.1; fill:none" points="
  212.459,1268.66 2352.76,1268.66 
  "/>
<polyline clip-path="url(#clip742)" style="stroke:#000000; stroke-width:2; stroke-opacity:0.1; fill:none" points="
  212.459,1001.17 2352.76,1001.17 
  "/>
<polyline clip-path="url(#clip742)" style="stroke:#000000; stroke-width:2; stroke-opacity:0.1; fill:none" points="
  212.459,733.684 2352.76,733.684 
  "/>
<polyline clip-path="url(#clip742)" style="stroke:#000000; stroke-width:2; stroke-opacity:0.1; fill:none" points="
  212.459,466.196 2352.76,466.196 
  "/>
<polyline clip-path="url(#clip742)" style="stroke:#000000; stroke-width:2; stroke-opacity:0.1; fill:none" points="
  212.459,198.708 2352.76,198.708 
  "/>
<polyline clip-path="url(#clip740)" style="stroke:#000000; stroke-width:4; stroke-opacity:1; fill:none" points="
  212.459,1423.18 212.459,47.2441 
  "/>
<polyline clip-path="url(#clip740)" style="stroke:#000000; stroke-width:4; stroke-opacity:1; fill:none" points="
  212.459,1268.66 238.142,1268.66 
  "/>
<polyline clip-path="url(#clip740)" style="stroke:#000000; stroke-width:4; stroke-opacity:1; fill:none" points="
  212.459,1001.17 238.142,1001.17 
  "/>
<polyline clip-path="url(#clip740)" style="stroke:#000000; stroke-width:4; stroke-opacity:1; fill:none" points="
  212.459,733.684 238.142,733.684 
  "/>
<polyline clip-path="url(#clip740)" style="stroke:#000000; stroke-width:4; stroke-opacity:1; fill:none" points="
  212.459,466.196 238.142,466.196 
  "/>
<polyline clip-path="url(#clip740)" style="stroke:#000000; stroke-width:4; stroke-opacity:1; fill:none" points="
  212.459,198.708 238.142,198.708 
  "/>
<path clip-path="url(#clip740)" d="M 0 0 M114.26 1269.11 L143.936 1269.11 L143.936 1273.05 L114.26 1273.05 L114.26 1269.11 Z" fill="#000000" fill-rule="evenodd" fill-opacity="1" /><path clip-path="url(#clip740)" d="M 0 0 M166.876 1255.45 L155.07 1273.9 L166.876 1273.9 L166.876 1255.45 M165.649 1251.38 L171.528 1251.38 L171.528 1273.9 L176.459 1273.9 L176.459 1277.79 L171.528 1277.79 L171.528 1285.94 L166.876 1285.94 L166.876 1277.79 L151.274 1277.79 L151.274 1273.28 L165.649 1251.38 Z" fill="#000000" fill-rule="evenodd" fill-opacity="1" /><path clip-path="url(#clip740)" d="M 0 0 M116.343 1001.62 L146.019 1001.62 L146.019 1005.56 L116.343 1005.56 L116.343 1001.62 Z" fill="#000000" fill-rule="evenodd" fill-opacity="1" /><path clip-path="url(#clip740)" d="M 0 0 M160.14 1014.52 L176.459 1014.52 L176.459 1018.45 L154.515 1018.45 L154.515 1014.52 Q157.177 1011.76 161.76 1007.13 Q166.366 1002.48 167.547 1001.14 Q169.792 998.614 170.672 996.878 Q171.575 995.119 171.575 993.429 Q171.575 990.675 169.63 988.938 Q167.709 987.202 164.607 987.202 Q162.408 987.202 159.954 987.966 Q157.524 988.73 154.746 990.281 L154.746 985.559 Q157.57 984.425 160.024 983.846 Q162.477 983.267 164.515 983.267 Q169.885 983.267 173.079 985.952 Q176.274 988.638 176.274 993.128 Q176.274 995.258 175.464 997.179 Q174.677 999.077 172.57 1001.67 Q171.991 1002.34 168.889 1005.56 Q165.788 1008.75 160.14 1014.52 Z" fill="#000000" fill-rule="evenodd" fill-opacity="1" /><path clip-path="url(#clip740)" d="M 0 0 M164.515 719.483 Q160.903 719.483 159.075 723.048 Q157.269 726.589 157.269 733.719 Q157.269 740.825 159.075 744.39 Q160.903 747.932 164.515 747.932 Q168.149 747.932 169.954 744.39 Q171.783 740.825 171.783 733.719 Q171.783 726.589 169.954 723.048 Q168.149 719.483 164.515 719.483 M164.515 715.779 Q170.325 715.779 173.38 720.385 Q176.459 724.969 176.459 733.719 Q176.459 742.446 173.38 747.052 Q170.325 751.635 164.515 751.635 Q158.704 751.635 155.626 747.052 Q152.57 742.446 152.57 733.719 Q152.57 724.969 155.626 720.385 Q158.704 715.779 164.515 715.779 Z" fill="#000000" fill-rule="evenodd" fill-opacity="1" /><path clip-path="url(#clip740)" d="M 0 0 M160.14 479.541 L176.459 479.541 L176.459 483.476 L154.515 483.476 L154.515 479.541 Q157.177 476.786 161.76 472.156 Q166.366 467.504 167.547 466.161 Q169.792 463.638 170.672 461.902 Q171.575 460.143 171.575 458.453 Q171.575 455.698 169.63 453.962 Q167.709 452.226 164.607 452.226 Q162.408 452.226 159.954 452.99 Q157.524 453.754 154.746 455.305 L154.746 450.583 Q157.57 449.448 160.024 448.87 Q162.477 448.291 164.515 448.291 Q169.885 448.291 173.079 450.976 Q176.274 453.661 176.274 458.152 Q176.274 460.282 175.464 462.203 Q174.677 464.101 172.57 466.694 Q171.991 467.365 168.889 470.582 Q165.788 473.777 160.14 479.541 Z" fill="#000000" fill-rule="evenodd" fill-opacity="1" /><path clip-path="url(#clip740)" d="M 0 0 M166.876 185.502 L155.07 203.951 L166.876 203.951 L166.876 185.502 M165.649 181.428 L171.528 181.428 L171.528 203.951 L176.459 203.951 L176.459 207.84 L171.528 207.84 L171.528 215.988 L166.876 215.988 L166.876 207.84 L151.274 207.84 L151.274 203.326 L165.649 181.428 Z" fill="#000000" fill-rule="evenodd" fill-opacity="1" /><path clip-path="url(#clip740)" d="M 0 0 M29.7248 796.386 L35.1993 796.386 Q33.8307 798.869 33.1623 801.383 Q32.4621 803.866 32.4621 806.412 Q32.4621 812.11 36.0905 815.261 Q39.6872 818.412 46.212 818.412 Q52.7369 818.412 56.3653 815.261 Q59.9619 812.11 59.9619 806.412 Q59.9619 803.866 59.2935 801.383 Q58.5933 798.869 57.2247 796.386 L62.6355 796.386 Q63.7814 798.837 64.3543 801.479 Q64.9272 804.089 64.9272 807.049 Q64.9272 815.102 59.8664 819.844 Q54.8057 824.586 46.212 824.586 Q37.491 824.586 32.4939 819.812 Q27.4968 815.006 27.4968 806.667 Q27.4968 803.962 28.0697 801.383 Q28.6108 798.805 29.7248 796.386 Z" fill="#000000" fill-rule="evenodd" fill-opacity="1" /><path clip-path="url(#clip740)" d="M 0 0 M32.4621 772.388 Q32.4621 777.098 36.1542 779.836 Q39.8145 782.573 46.212 782.573 Q52.6095 782.573 56.3017 779.867 Q59.9619 777.13 59.9619 772.388 Q59.9619 767.709 56.2698 764.972 Q52.5777 762.234 46.212 762.234 Q39.8781 762.234 36.186 764.972 Q32.4621 767.709 32.4621 772.388 M27.4968 772.388 Q27.4968 764.749 32.4621 760.388 Q37.4273 756.028 46.212 756.028 Q54.9649 756.028 59.9619 760.388 Q64.9272 764.749 64.9272 772.388 Q64.9272 780.058 59.9619 784.419 Q54.9649 788.748 46.212 788.748 Q37.4273 788.748 32.4621 784.419 Q27.4968 780.058 27.4968 772.388 Z" fill="#000000" fill-rule="evenodd" fill-opacity="1" /><path clip-path="url(#clip740)" d="M 0 0 M49.9359 746.925 L28.3562 746.925 L28.3562 741.068 L49.7131 741.068 Q54.7739 741.068 57.3202 739.095 Q59.8346 737.122 59.8346 733.175 Q59.8346 728.432 56.8109 725.695 Q53.7872 722.926 48.5673 722.926 L28.3562 722.926 L28.3562 717.07 L64.0042 717.07 L64.0042 722.926 L58.5296 722.926 Q61.7762 725.059 63.3676 727.891 Q64.9272 730.692 64.9272 734.416 Q64.9272 740.559 61.1078 743.742 Q57.2883 746.925 49.9359 746.925 M27.4968 732.188 L27.4968 732.188 Z" fill="#000000" fill-rule="evenodd" fill-opacity="1" /><path clip-path="url(#clip740)" d="M 0 0 M42.4881 675.374 L64.0042 675.374 L64.0042 681.231 L42.679 681.231 Q37.6183 681.231 35.1038 683.204 Q32.5894 685.178 32.5894 689.124 Q32.5894 693.867 35.6131 696.604 Q38.6368 699.341 43.8567 699.341 L64.0042 699.341 L64.0042 705.229 L28.3562 705.229 L28.3562 699.341 L33.8944 699.341 Q30.6797 697.241 29.0883 694.408 Q27.4968 691.543 27.4968 687.819 Q27.4968 681.676 31.3163 678.525 Q35.1038 675.374 42.4881 675.374 Z" fill="#000000" fill-rule="evenodd" fill-opacity="1" /><path clip-path="url(#clip740)" d="M 0 0 M18.2347 657.9 L28.3562 657.9 L28.3562 645.837 L32.9077 645.837 L32.9077 657.9 L52.2594 657.9 Q56.6199 657.9 57.8613 656.723 Q59.1026 655.513 59.1026 651.853 L59.1026 645.837 L64.0042 645.837 L64.0042 651.853 Q64.0042 658.633 61.4897 661.211 Q58.9434 663.789 52.2594 663.789 L32.9077 663.789 L32.9077 668.086 L28.3562 668.086 L28.3562 663.789 L18.2347 663.789 L18.2347 657.9 Z" fill="#000000" fill-rule="evenodd" fill-opacity="1" /><path clip-path="url(#clip742)" d="
M273.033 562.385 L373.991 562.385 L373.991 733.684 L273.033 733.684  Z
  " fill="#000000" fill-rule="evenodd" fill-opacity="0.5"/>
<polyline clip-path="url(#clip742)" style="stroke:#000000; stroke-width:4; stroke-opacity:1; fill:none" points="
  273.033,562.385 373.991,562.385 
  "/>
<path clip-path="url(#clip742)" d="
M373.991 289.846 L474.948 289.846 L474.948 733.684 L373.991 733.684  Z
  " fill="#000000" fill-rule="evenodd" fill-opacity="0.5"/>
<polyline clip-path="url(#clip742)" style="stroke:#000000; stroke-width:4; stroke-opacity:1; fill:none" points="
  373.991,289.846 474.948,289.846 
  "/>
<path clip-path="url(#clip742)" d="
M474.948 115.881 L575.906 115.881 L575.906 733.684 L474.948 733.684  Z
  " fill="#000000" fill-rule="evenodd" fill-opacity="0.5"/>
<polyline clip-path="url(#clip742)" style="stroke:#000000; stroke-width:4; stroke-opacity:1; fill:none" points="
  474.948,115.881 575.906,115.881 
  "/>
<path clip-path="url(#clip742)" d="
M575.906 93.0948 L676.863 93.0948 L676.863 733.684 L575.906 733.684  Z
  " fill="#000000" fill-rule="evenodd" fill-opacity="0.5"/>
<polyline clip-path="url(#clip742)" style="stroke:#000000; stroke-width:4; stroke-opacity:1; fill:none" points="
  575.906,93.0948 676.863,93.0948 
  "/>
<path clip-path="url(#clip742)" d="
M676.863 227.147 L777.82 227.147 L777.82 733.684 L676.863 733.684  Z
  " fill="#000000" fill-rule="evenodd" fill-opacity="0.5"/>
<polyline clip-path="url(#clip742)" style="stroke:#000000; stroke-width:4; stroke-opacity:1; fill:none" points="
  676.863,227.147 777.82,227.147 
  "/>
<path clip-path="url(#clip742)" d="
M777.82 485.217 L878.778 485.217 L878.778 733.684 L777.82 733.684  Z
  " fill="#000000" fill-rule="evenodd" fill-opacity="0.5"/>
<polyline clip-path="url(#clip742)" style="stroke:#000000; stroke-width:4; stroke-opacity:1; fill:none" points="
  777.82,485.217 878.778,485.217 
  "/>
<path clip-path="url(#clip742)" d="
M878.778 804.121 L979.735 804.121 L979.735 733.684 L878.778 733.684  Z
  " fill="#000000" fill-rule="evenodd" fill-opacity="0.5"/>
<polyline clip-path="url(#clip742)" style="stroke:#000000; stroke-width:4; stroke-opacity:1; fill:none" points="
  878.778,804.121 979.735,804.121 
  "/>
<path clip-path="url(#clip742)" d="
M979.735 1105.78 L1080.69 1105.78 L1080.69 733.684 L979.735 733.684  Z
  " fill="#000000" fill-rule="evenodd" fill-opacity="0.5"/>
<polyline clip-path="url(#clip742)" style="stroke:#000000; stroke-width:4; stroke-opacity:1; fill:none" points="
  979.735,1105.78 1080.69,1105.78 
  "/>
<path clip-path="url(#clip742)" d="
M1080.69 1316.34 L1181.65 1316.34 L1181.65 733.684 L1080.69 733.684  Z
  " fill="#000000" fill-rule="evenodd" fill-opacity="0.5"/>
<polyline clip-path="url(#clip742)" style="stroke:#000000; stroke-width:4; stroke-opacity:1; fill:none" points="
  1080.69,1316.34 1181.65,1316.34 
  "/>
<path clip-path="url(#clip742)" d="
M1181.65 1384.24 L1282.61 1384.24 L1282.61 733.684 L1181.65 733.684  Z
  " fill="#000000" fill-rule="evenodd" fill-opacity="0.5"/>
<polyline clip-path="url(#clip742)" style="stroke:#000000; stroke-width:4; stroke-opacity:1; fill:none" points="
  1181.65,1384.24 1282.61,1384.24 
  "/>
<path clip-path="url(#clip742)" d="
M1282.61 1292.86 L1383.56 1292.86 L1383.56 733.684 L1282.61 733.684  Z
  " fill="#000000" fill-rule="evenodd" fill-opacity="0.5"/>
<polyline clip-path="url(#clip742)" style="stroke:#000000; stroke-width:4; stroke-opacity:1; fill:none" points="
  1282.61,1292.86 1383.56,1292.86 
  "/>
<path clip-path="url(#clip742)" d="
M1383.56 1064.58 L1484.52 1064.58 L1484.52 733.684 L1383.56 733.684  Z
  " fill="#000000" fill-rule="evenodd" fill-opacity="0.5"/>
<polyline clip-path="url(#clip742)" style="stroke:#000000; stroke-width:4; stroke-opacity:1; fill:none" points="
  1383.56,1064.58 1484.52,1064.58 
  "/>
<path clip-path="url(#clip742)" d="
M1484.52 755.284 L1585.48 755.284 L1585.48 733.684 L1484.52 733.684  Z
  " fill="#000000" fill-rule="evenodd" fill-opacity="0.5"/>
<polyline clip-path="url(#clip742)" style="stroke:#000000; stroke-width:4; stroke-opacity:1; fill:none" points="
  1484.52,755.284 1585.48,755.284 
  "/>
<path clip-path="url(#clip742)" d="
M1585.48 440.699 L1686.44 440.699 L1686.44 733.684 L1585.48 733.684  Z
  " fill="#000000" fill-rule="evenodd" fill-opacity="0.5"/>
<polyline clip-path="url(#clip742)" style="stroke:#000000; stroke-width:4; stroke-opacity:1; fill:none" points="
  1585.48,440.699 1686.44,440.699 
  "/>
<path clip-path="url(#clip742)" d="
M1686.44 197.846 L1787.39 197.846 L1787.39 733.684 L1686.44 733.684  Z
  " fill="#000000" fill-rule="evenodd" fill-opacity="0.5"/>
<polyline clip-path="url(#clip742)" style="stroke:#000000; stroke-width:4; stroke-opacity:1; fill:none" points="
  1686.44,197.846 1787.39,197.846 
  "/>
<path clip-path="url(#clip742)" d="
M1787.39 86.1857 L1888.35 86.1857 L1888.35 733.684 L1787.39 733.684  Z
  " fill="#000000" fill-rule="evenodd" fill-opacity="0.5"/>
<polyline clip-path="url(#clip742)" style="stroke:#000000; stroke-width:4; stroke-opacity:1; fill:none" points="
  1787.39,86.1857 1888.35,86.1857 
  "/>
<path clip-path="url(#clip742)" d="
M1888.35 133.055 L1989.31 133.055 L1989.31 733.684 L1888.35 733.684  Z
  " fill="#000000" fill-rule="evenodd" fill-opacity="0.5"/>
<polyline clip-path="url(#clip742)" style="stroke:#000000; stroke-width:4; stroke-opacity:1; fill:none" points="
  1888.35,133.055 1989.31,133.055 
  "/>
<path clip-path="url(#clip742)" d="
M1989.31 326.977 L2090.27 326.977 L2090.27 733.684 L1989.31 733.684  Z
  " fill="#000000" fill-rule="evenodd" fill-opacity="0.5"/>
<polyline clip-path="url(#clip742)" style="stroke:#000000; stroke-width:4; stroke-opacity:1; fill:none" points="
  1989.31,326.977 2090.27,326.977 
  "/>
<path clip-path="url(#clip742)" d="
M2090.27 620.133 L2191.22 620.133 L2191.22 733.684 L2090.27 733.684  Z
  " fill="#000000" fill-rule="evenodd" fill-opacity="0.5"/>
<polyline clip-path="url(#clip742)" style="stroke:#000000; stroke-width:4; stroke-opacity:1; fill:none" points="
  2090.27,620.133 2191.22,620.133 
  "/>
<path clip-path="url(#clip742)" d="
M2191.22 900.263 L2292.18 900.263 L2292.18 733.684 L2191.22 733.684  Z
  " fill="#000000" fill-rule="evenodd" fill-opacity="0.5"/>
<polyline clip-path="url(#clip742)" style="stroke:#000000; stroke-width:4; stroke-opacity:1; fill:none" points="
  2191.22,900.263 2292.18,900.263 
  "/>
<path clip-path="url(#clip742)" d="
M273.033 562.385 L399.062 562.385 L399.062 733.684 L273.033 733.684  Z
  " fill="#0000ff" fill-rule="evenodd" fill-opacity="0.5"/>
<polyline clip-path="url(#clip742)" style="stroke:#0000ff; stroke-width:4; stroke-opacity:1; fill:none" points="
  273.033,562.385 399.062,562.385 
  "/>
<path clip-path="url(#clip742)" d="
M399.062 289.846 L491.66 289.846 L491.66 733.684 L399.062 733.684  Z
  " fill="#0000ff" fill-rule="evenodd" fill-opacity="0.5"/>
<polyline clip-path="url(#clip742)" style="stroke:#0000ff; stroke-width:4; stroke-opacity:1; fill:none" points="
  399.062,289.846 491.66,289.846 
  "/>
<path clip-path="url(#clip742)" d="
M491.66 115.881 L577.49 115.881 L577.49 733.684 L491.66 733.684  Z
  " fill="#0000ff" fill-rule="evenodd" fill-opacity="0.5"/>
<polyline clip-path="url(#clip742)" style="stroke:#0000ff; stroke-width:4; stroke-opacity:1; fill:none" points="
  491.66,115.881 577.49,115.881 
  "/>
<path clip-path="url(#clip742)" d="
M577.49 93.0948 L661.686 93.0948 L661.686 733.684 L577.49 733.684  Z
  " fill="#0000ff" fill-rule="evenodd" fill-opacity="0.5"/>
<polyline clip-path="url(#clip742)" style="stroke:#0000ff; stroke-width:4; stroke-opacity:1; fill:none" points="
  577.49,93.0948 661.686,93.0948 
  "/>
<path clip-path="url(#clip742)" d="
M661.686 227.147 L746.631 227.147 L746.631 733.684 L661.686 733.684  Z
  " fill="#0000ff" fill-rule="evenodd" fill-opacity="0.5"/>
<polyline clip-path="url(#clip742)" style="stroke:#0000ff; stroke-width:4; stroke-opacity:1; fill:none" points="
  661.686,227.147 746.631,227.147 
  "/>
<path clip-path="url(#clip742)" d="
M746.631 485.217 L834.229 485.217 L834.229 733.684 L746.631 733.684  Z
  " fill="#0000ff" fill-rule="evenodd" fill-opacity="0.5"/>
<polyline clip-path="url(#clip742)" style="stroke:#0000ff; stroke-width:4; stroke-opacity:1; fill:none" points="
  746.631,485.217 834.229,485.217 
  "/>
<path clip-path="url(#clip742)" d="
M834.229 804.121 L926.934 804.121 L926.934 733.684 L834.229 733.684  Z
  " fill="#0000ff" fill-rule="evenodd" fill-opacity="0.5"/>
<polyline clip-path="url(#clip742)" style="stroke:#0000ff; stroke-width:4; stroke-opacity:1; fill:none" points="
  834.229,804.121 926.934,804.121 
  "/>
<path clip-path="url(#clip742)" d="
M926.934 1105.78 L1024.25 1105.78 L1024.25 733.684 L926.934 733.684  Z
  " fill="#0000ff" fill-rule="evenodd" fill-opacity="0.5"/>
<polyline clip-path="url(#clip742)" style="stroke:#0000ff; stroke-width:4; stroke-opacity:1; fill:none" points="
  926.934,1105.78 1024.25,1105.78 
  "/>
<path clip-path="url(#clip742)" d="
M1024.25 1316.34 L1138.35 1316.34 L1138.35 733.684 L1024.25 733.684  Z
  " fill="#0000ff" fill-rule="evenodd" fill-opacity="0.5"/>
<polyline clip-path="url(#clip742)" style="stroke:#0000ff; stroke-width:4; stroke-opacity:1; fill:none" points="
  1024.25,1316.34 1138.35,1316.34 
  "/>
<path clip-path="url(#clip742)" d="
M1138.35 1384.24 L1335.18 1384.24 L1335.18 733.684 L1138.35 733.684  Z
  " fill="#0000ff" fill-rule="evenodd" fill-opacity="0.5"/>
<polyline clip-path="url(#clip742)" style="stroke:#0000ff; stroke-width:4; stroke-opacity:1; fill:none" points="
  1138.35,1384.24 1335.18,1384.24 
  "/>
<path clip-path="url(#clip742)" d="
M1335.18 1292.86 L1438.71 1292.86 L1438.71 733.684 L1335.18 733.684  Z
  " fill="#0000ff" fill-rule="evenodd" fill-opacity="0.5"/>
<polyline clip-path="url(#clip742)" style="stroke:#0000ff; stroke-width:4; stroke-opacity:1; fill:none" points="
  1335.18,1292.86 1438.71,1292.86 
  "/>
<path clip-path="url(#clip742)" d="
M1438.71 1064.58 L1536.61 1064.58 L1536.61 733.684 L1438.71 733.684  Z
  " fill="#0000ff" fill-rule="evenodd" fill-opacity="0.5"/>
<polyline clip-path="url(#clip742)" style="stroke:#0000ff; stroke-width:4; stroke-opacity:1; fill:none" points="
  1438.71,1064.58 1536.61,1064.58 
  "/>
<path clip-path="url(#clip742)" d="
M1536.61 755.284 L1628.26 755.284 L1628.26 733.684 L1536.61 733.684  Z
  " fill="#0000ff" fill-rule="evenodd" fill-opacity="0.5"/>
<polyline clip-path="url(#clip742)" style="stroke:#0000ff; stroke-width:4; stroke-opacity:1; fill:none" points="
  1536.61,755.284 1628.26,755.284 
  "/>
<path clip-path="url(#clip742)" d="
M1628.26 440.699 L1715.27 440.699 L1715.27 733.684 L1628.26 733.684  Z
  " fill="#0000ff" fill-rule="evenodd" fill-opacity="0.5"/>
<polyline clip-path="url(#clip742)" style="stroke:#0000ff; stroke-width:4; stroke-opacity:1; fill:none" points="
  1628.26,440.699 1715.27,440.699 
  "/>
<path clip-path="url(#clip742)" d="
M1715.27 197.846 L1799.75 197.846 L1799.75 733.684 L1715.27 733.684  Z
  " fill="#0000ff" fill-rule="evenodd" fill-opacity="0.5"/>
<polyline clip-path="url(#clip742)" style="stroke:#0000ff; stroke-width:4; stroke-opacity:1; fill:none" points="
  1715.27,197.846 1799.75,197.846 
  "/>
<path clip-path="url(#clip742)" d="
M1799.75 86.1857 L1883.25 86.1857 L1883.25 733.684 L1799.75 733.684  Z
  " fill="#0000ff" fill-rule="evenodd" fill-opacity="0.5"/>
<polyline clip-path="url(#clip742)" style="stroke:#0000ff; stroke-width:4; stroke-opacity:1; fill:none" points="
  1799.75,86.1857 1883.25,86.1857 
  "/>
<path clip-path="url(#clip742)" d="
M1883.25 133.055 L1967.13 133.055 L1967.13 733.684 L1883.25 733.684  Z
  " fill="#0000ff" fill-rule="evenodd" fill-opacity="0.5"/>
<polyline clip-path="url(#clip742)" style="stroke:#0000ff; stroke-width:4; stroke-opacity:1; fill:none" points="
  1883.25,133.055 1967.13,133.055 
  "/>
<path clip-path="url(#clip742)" d="
M1967.13 326.977 L2052.64 326.977 L2052.64 733.684 L1967.13 733.684  Z
  " fill="#0000ff" fill-rule="evenodd" fill-opacity="0.5"/>
<polyline clip-path="url(#clip742)" style="stroke:#0000ff; stroke-width:4; stroke-opacity:1; fill:none" points="
  1967.13,326.977 2052.64,326.977 
  "/>
<path clip-path="url(#clip742)" d="
M2052.64 620.133 L2139.56 620.133 L2139.56 733.684 L2052.64 733.684  Z
  " fill="#0000ff" fill-rule="evenodd" fill-opacity="0.5"/>
<polyline clip-path="url(#clip742)" style="stroke:#0000ff; stroke-width:4; stroke-opacity:1; fill:none" points="
  2052.64,620.133 2139.56,620.133 
  "/>
<path clip-path="url(#clip742)" d="
M2139.56 900.263 L2292.18 900.263 L2292.18 733.684 L2139.56 733.684  Z
  " fill="#0000ff" fill-rule="evenodd" fill-opacity="0.5"/>
<polyline clip-path="url(#clip742)" style="stroke:#0000ff; stroke-width:4; stroke-opacity:1; fill:none" points="
  2139.56,900.263 2292.18,900.263 
  "/>
</svg>
